G04 Layer_Color=8388736*
%FSLAX25Y25*%
%MOIN*%
G70*
G01*
G75*
%ADD33R,0.04928X0.02762*%
%ADD34R,0.08274X0.03943*%
%ADD35R,0.03943X0.08274*%
%ADD36R,0.06305X0.18116*%
%ADD37R,0.03943X0.03550*%
%ADD38R,0.03550X0.03943*%
%ADD39C,0.20085*%
%ADD40R,0.05124X0.10243*%
%ADD41O,0.05124X0.10243*%
%ADD42R,0.06305X0.06305*%
%ADD43C,0.06305*%
%ADD44C,0.05400*%
D33*
X97933Y90354D02*
D03*
Y82874D02*
D03*
X106791Y86614D02*
D03*
D34*
X52362Y75827D02*
D03*
Y80827D02*
D03*
Y85827D02*
D03*
Y90827D02*
D03*
Y95827D02*
D03*
Y100827D02*
D03*
D35*
X78347Y71102D02*
D03*
Y105748D02*
D03*
D36*
X82677Y49409D02*
D03*
Y13583D02*
D03*
D37*
X56299Y63779D02*
D03*
Y58268D02*
D03*
X50787Y63779D02*
D03*
Y58268D02*
D03*
D38*
X91732Y62992D02*
D03*
X97244D02*
D03*
D39*
X118110Y70079D02*
D03*
X183465Y100000D02*
D03*
D40*
X39291Y82677D02*
D03*
D41*
X29291D02*
D03*
X19291D02*
D03*
X9291D02*
D03*
D42*
X107362Y102362D02*
D03*
X190945Y9843D02*
D03*
X137244Y93150D02*
D03*
D43*
X97362Y102362D02*
D03*
X157244Y103150D02*
D03*
Y93150D02*
D03*
X147244Y103150D02*
D03*
Y93150D02*
D03*
X137244Y103150D02*
D03*
D44*
X63779Y79921D02*
D03*
X143701Y69685D02*
D03*
X57087Y12992D02*
D03*
X68110Y19291D02*
D03*
X100787Y9449D02*
D03*
X109055Y8268D02*
D03*
X92913Y9843D02*
D03*
X55118Y29528D02*
D03*
X159449Y69685D02*
D03*
X167323Y69291D02*
D03*
X175197Y68898D02*
D03*
X183071Y68504D02*
D03*
X119685Y4724D02*
D03*
X175197Y12205D02*
D03*
X125984Y9449D02*
D03*
X167323Y11811D02*
D03*
X152362Y67716D02*
D03*
X84646Y85039D02*
D03*
X18504Y61811D02*
D03*
X71260Y55905D02*
D03*
X37795Y100394D02*
D03*
X17717Y92913D02*
D03*
X60984Y95709D02*
D03*
X65276Y100709D02*
D03*
X93701Y75590D02*
D03*
M02*
