G04 Layer_Physical_Order=2*
G04 Layer_Color=16711680*
%FSLAX25Y25*%
%MOIN*%
G70*
G01*
G75*
%ADD14R,0.03543X0.03150*%
%ADD15R,0.03150X0.03543*%
%ADD16C,0.01000*%
%ADD17C,0.19685*%
%ADD18R,0.04724X0.09842*%
%ADD19O,0.04724X0.09842*%
%ADD20R,0.05905X0.05905*%
%ADD21C,0.05905*%
%ADD22C,0.05000*%
%ADD23R,0.05000X0.10000*%
%ADD24O,0.05000X0.10000*%
%ADD25R,0.03543X0.02756*%
%ADD26O,0.05315X0.02165*%
%ADD27O,0.02165X0.05315*%
%ADD28C,0.03937*%
G36*
X200787Y0D02*
X0D01*
Y114173D01*
X200787D01*
Y0D01*
D02*
G37*
%LPC*%
G36*
X67807Y65839D02*
X66184D01*
Y64764D01*
X66345Y63951D01*
X66806Y63262D01*
X67494Y62802D01*
X67807Y62740D01*
Y65839D01*
D02*
G37*
G36*
X87705Y69937D02*
Y66339D01*
Y62740D01*
X88017Y62802D01*
X88706Y63262D01*
X88853D01*
X89542Y62802D01*
X89854Y62740D01*
Y66339D01*
Y69937D01*
X89542Y69875D01*
X88853Y69415D01*
X88706D01*
X88017Y69875D01*
X87705Y69937D01*
D02*
G37*
G36*
X183071Y85167D02*
X182157Y85047D01*
X181306Y84694D01*
X180575Y84133D01*
X180014Y83402D01*
X179661Y82551D01*
X179541Y81637D01*
Y76637D01*
X179661Y75723D01*
X180014Y74872D01*
X180575Y74141D01*
X181306Y73580D01*
X181542Y73482D01*
Y71659D01*
X181306Y71561D01*
X180575Y71000D01*
X180014Y70269D01*
X179661Y69418D01*
X179541Y68504D01*
X179661Y67590D01*
X180014Y66739D01*
X180575Y66008D01*
X181306Y65447D01*
X182157Y65094D01*
X183071Y64974D01*
X183984Y65094D01*
X184836Y65447D01*
X185567Y66008D01*
X186128Y66739D01*
X186481Y67590D01*
X186601Y68504D01*
X186481Y69418D01*
X186128Y70269D01*
X185567Y71000D01*
X184836Y71561D01*
X184600Y71659D01*
Y73482D01*
X184836Y73580D01*
X185567Y74141D01*
X186128Y74872D01*
X186481Y75723D01*
X186601Y76637D01*
Y81637D01*
X186481Y82551D01*
X186128Y83402D01*
X185567Y84133D01*
X184836Y84694D01*
X183984Y85047D01*
X183071Y85167D01*
D02*
G37*
G36*
X62492Y63147D02*
X61417D01*
X60605Y62985D01*
X59916Y62525D01*
X59456Y61836D01*
X59393Y61524D01*
X62492D01*
Y63147D01*
D02*
G37*
G36*
X64567D02*
X63492D01*
Y61524D01*
X66591D01*
X66529Y61836D01*
X66069Y62525D01*
X65380Y62985D01*
X64567Y63147D01*
D02*
G37*
G36*
X92478Y65839D02*
X90854D01*
Y62740D01*
X91167Y62802D01*
X91856Y63262D01*
X92316Y63951D01*
X92478Y64764D01*
Y65839D01*
D02*
G37*
G36*
X175197Y85167D02*
X174283Y85047D01*
X173432Y84694D01*
X172701Y84133D01*
X172140Y83402D01*
X171787Y82551D01*
X171667Y81637D01*
Y76637D01*
X171787Y75723D01*
X172140Y74872D01*
X172701Y74141D01*
X173432Y73580D01*
X173668Y73482D01*
Y72053D01*
X173432Y71955D01*
X172701Y71394D01*
X172140Y70663D01*
X171787Y69811D01*
X171667Y68898D01*
X171787Y67984D01*
X172140Y67133D01*
X172701Y66401D01*
X173432Y65840D01*
X174283Y65488D01*
X175197Y65367D01*
X176110Y65488D01*
X176962Y65840D01*
X177693Y66401D01*
X178254Y67133D01*
X178607Y67984D01*
X178727Y68898D01*
X178607Y69811D01*
X178254Y70663D01*
X177693Y71394D01*
X176962Y71955D01*
X176726Y72053D01*
Y73482D01*
X176962Y73580D01*
X177693Y74141D01*
X178254Y74872D01*
X178607Y75723D01*
X178727Y76637D01*
Y81637D01*
X178607Y82551D01*
X178254Y83402D01*
X177693Y84133D01*
X176962Y84694D01*
X176110Y85047D01*
X175197Y85167D01*
D02*
G37*
G36*
X135327Y78637D02*
X132307D01*
Y74137D01*
X132385Y73747D01*
X132606Y73416D01*
X132937Y73195D01*
X133327Y73117D01*
X135327D01*
Y78637D01*
D02*
G37*
G36*
X139346D02*
X136327D01*
Y73117D01*
X138327D01*
X138717Y73195D01*
X139048Y73416D01*
X139269Y73747D01*
X139346Y74137D01*
Y78637D01*
D02*
G37*
G36*
X190445D02*
X187415D01*
Y76637D01*
X187535Y75723D01*
X187888Y74872D01*
X188449Y74141D01*
X189180Y73580D01*
X190031Y73227D01*
X190445Y73172D01*
Y78637D01*
D02*
G37*
G36*
X167323Y85167D02*
X166409Y85047D01*
X165558Y84694D01*
X164827Y84133D01*
X164266Y83402D01*
X163913Y82551D01*
X163793Y81637D01*
Y76637D01*
X163913Y75723D01*
X164266Y74872D01*
X164827Y74141D01*
X165558Y73580D01*
X165794Y73482D01*
Y72446D01*
X165558Y72349D01*
X164827Y71788D01*
X164266Y71056D01*
X163913Y70205D01*
X163793Y69291D01*
X163913Y68378D01*
X164266Y67526D01*
X164827Y66795D01*
X165558Y66234D01*
X166409Y65881D01*
X167323Y65761D01*
X168236Y65881D01*
X169088Y66234D01*
X169819Y66795D01*
X170380Y67526D01*
X170733Y68378D01*
X170853Y69291D01*
X170733Y70205D01*
X170380Y71056D01*
X169819Y71788D01*
X169088Y72349D01*
X168852Y72446D01*
Y73482D01*
X169088Y73580D01*
X169819Y74141D01*
X170380Y74872D01*
X170733Y75723D01*
X170853Y76637D01*
Y81637D01*
X170733Y82551D01*
X170380Y83402D01*
X169819Y84133D01*
X169088Y84694D01*
X168236Y85047D01*
X167323Y85167D01*
D02*
G37*
G36*
X67807Y69937D02*
X67494Y69875D01*
X66806Y69415D01*
X66345Y68726D01*
X66184Y67913D01*
Y66839D01*
X67807D01*
Y69937D01*
D02*
G37*
G36*
X90854Y69937D02*
Y66839D01*
X92478D01*
Y67913D01*
X92316Y68726D01*
X91856Y69415D01*
X91167Y69875D01*
X90854Y69937D01*
D02*
G37*
G36*
X175197Y27290D02*
X174283Y27170D01*
X173432Y26817D01*
X172701Y26256D01*
X172140Y25525D01*
X171787Y24674D01*
X171667Y23760D01*
Y18760D01*
X171787Y17846D01*
X172140Y16995D01*
X172701Y16264D01*
X173347Y15768D01*
X173395Y15482D01*
X173347Y15197D01*
X172701Y14701D01*
X172140Y13970D01*
X171787Y13118D01*
X171667Y12205D01*
X171787Y11291D01*
X172140Y10440D01*
X172701Y9708D01*
X173432Y9148D01*
X174283Y8795D01*
X175197Y8675D01*
X176110Y8795D01*
X176962Y9148D01*
X177693Y9708D01*
X178254Y10440D01*
X178607Y11291D01*
X178727Y12205D01*
X178607Y13118D01*
X178254Y13970D01*
X177693Y14701D01*
X177047Y15197D01*
X176999Y15482D01*
X177047Y15768D01*
X177693Y16264D01*
X178254Y16995D01*
X178607Y17846D01*
X178727Y18760D01*
Y23760D01*
X178607Y24674D01*
X178254Y25525D01*
X177693Y26256D01*
X176962Y26817D01*
X176110Y27170D01*
X175197Y27290D01*
D02*
G37*
G36*
X153043Y14602D02*
X151969D01*
X151578Y14525D01*
X151248Y14304D01*
X151026Y13973D01*
X150949Y13583D01*
Y12311D01*
X153043D01*
Y14602D01*
D02*
G37*
G36*
X182571Y20760D02*
X179541D01*
Y18760D01*
X179661Y17846D01*
X180014Y16995D01*
X180575Y16264D01*
X181306Y15703D01*
X182157Y15350D01*
X182571Y15295D01*
Y20760D01*
D02*
G37*
G36*
X153043Y5799D02*
X150949D01*
Y4528D01*
X151026Y4137D01*
X151248Y3807D01*
X151578Y3586D01*
X151969Y3508D01*
X153043D01*
Y5799D01*
D02*
G37*
G36*
X190945Y27290D02*
X190031Y27170D01*
X189180Y26817D01*
X188449Y26256D01*
X187888Y25525D01*
X187535Y24674D01*
X187415Y23760D01*
Y18760D01*
X187535Y17846D01*
X187888Y16995D01*
X187951Y16913D01*
Y13807D01*
X187602Y13737D01*
X187271Y13516D01*
X187050Y13185D01*
X186972Y12795D01*
Y6890D01*
X187050Y6500D01*
X187271Y6169D01*
X187602Y5948D01*
X187992Y5870D01*
X193898D01*
X194288Y5948D01*
X194619Y6169D01*
X194840Y6500D01*
X194917Y6890D01*
Y12795D01*
X194840Y13185D01*
X194619Y13516D01*
X194288Y13737D01*
X193939Y13807D01*
Y16913D01*
X194002Y16995D01*
X194355Y17846D01*
X194475Y18760D01*
Y23760D01*
X194355Y24674D01*
X194002Y25525D01*
X193441Y26256D01*
X192710Y26817D01*
X191858Y27170D01*
X190945Y27290D01*
D02*
G37*
G36*
X167323D02*
X166409Y27170D01*
X165558Y26817D01*
X164827Y26256D01*
X164266Y25525D01*
X163913Y24674D01*
X163793Y23760D01*
Y18760D01*
X163913Y17846D01*
X164266Y16995D01*
X164827Y16264D01*
X165558Y15703D01*
X165794Y15605D01*
Y14966D01*
X165558Y14868D01*
X164827Y14307D01*
X164266Y13576D01*
X163913Y12725D01*
X163793Y11811D01*
X163913Y10897D01*
X164266Y10046D01*
X164827Y9315D01*
X165558Y8754D01*
X166409Y8401D01*
X167323Y8281D01*
X168236Y8401D01*
X169088Y8754D01*
X169819Y9315D01*
X170380Y10046D01*
X170733Y10897D01*
X170853Y11811D01*
X170733Y12725D01*
X170380Y13576D01*
X169819Y14307D01*
X169088Y14868D01*
X168852Y14966D01*
Y15605D01*
X169088Y15703D01*
X169819Y16264D01*
X170380Y16995D01*
X170733Y17846D01*
X170853Y18760D01*
Y23760D01*
X170733Y24674D01*
X170380Y25525D01*
X169819Y26256D01*
X169088Y26817D01*
X168236Y27170D01*
X167323Y27290D01*
D02*
G37*
G36*
X186601Y20760D02*
X183571D01*
Y15295D01*
X183984Y15350D01*
X184836Y15703D01*
X185567Y16264D01*
X186128Y16995D01*
X186481Y17846D01*
X186601Y18760D01*
Y20760D01*
D02*
G37*
G36*
X93701Y79121D02*
X92787Y79001D01*
X91936Y78648D01*
X91205Y78087D01*
X90644Y77356D01*
X90291Y76504D01*
X90171Y75590D01*
X90291Y74677D01*
X90644Y73826D01*
X91205Y73094D01*
X91936Y72533D01*
X92787Y72181D01*
X93701Y72060D01*
X93764Y72069D01*
X94140Y71739D01*
Y63147D01*
X94095D01*
X93282Y62985D01*
X92593Y62525D01*
X92133Y61836D01*
X91971Y61024D01*
X92133Y60211D01*
X92383Y59837D01*
X92560Y59449D01*
X92383Y59061D01*
X92133Y58687D01*
X92071Y58374D01*
X95669D01*
X99268D01*
X99206Y58687D01*
X98956Y59061D01*
X98779Y59449D01*
X98956Y59837D01*
X99206Y60211D01*
X99368Y61024D01*
X99206Y61836D01*
X98746Y62525D01*
X98057Y62985D01*
X97244Y63147D01*
X97199D01*
Y73622D01*
X97082Y74207D01*
X96980Y74361D01*
X97111Y74677D01*
X97231Y75590D01*
X97111Y76504D01*
X96758Y77356D01*
X96197Y78087D01*
X95466Y78648D01*
X94614Y79001D01*
X93701Y79121D01*
D02*
G37*
G36*
X118110Y80955D02*
X116409Y80821D01*
X114749Y80423D01*
X113173Y79769D01*
X111717Y78878D01*
X110420Y77769D01*
X109311Y76472D01*
X108420Y75016D01*
X107766Y73440D01*
X107368Y71780D01*
X107234Y70079D01*
X107368Y68377D01*
X107766Y66718D01*
X108420Y65141D01*
X109311Y63686D01*
X110420Y62388D01*
X111717Y61280D01*
X113173Y60388D01*
X114749Y59735D01*
X116409Y59337D01*
X118110Y59203D01*
X119812Y59337D01*
X121471Y59735D01*
X123048Y60388D01*
X124503Y61280D01*
X125801Y62388D01*
X126909Y63686D01*
X127801Y65141D01*
X128454Y66718D01*
X128852Y68377D01*
X128986Y70079D01*
X128852Y71780D01*
X128454Y73440D01*
X127801Y75016D01*
X126909Y76472D01*
X125801Y77769D01*
X124503Y78878D01*
X123048Y79769D01*
X121471Y80423D01*
X119812Y80821D01*
X118110Y80955D01*
D02*
G37*
G36*
X54921Y61650D02*
X53650D01*
Y59752D01*
X55941D01*
Y60630D01*
X55863Y61020D01*
X55642Y61351D01*
X55311Y61572D01*
X54921Y61650D01*
D02*
G37*
G36*
X182571Y27224D02*
X182157Y27170D01*
X181306Y26817D01*
X180575Y26256D01*
X180014Y25525D01*
X179661Y24674D01*
X179541Y23760D01*
Y21760D01*
X182571D01*
Y27224D01*
D02*
G37*
G36*
X183571D02*
Y21760D01*
X186601D01*
Y23760D01*
X186481Y24674D01*
X186128Y25525D01*
X185567Y26256D01*
X184836Y26817D01*
X183984Y27170D01*
X183571Y27224D01*
D02*
G37*
G36*
X111059Y47138D02*
X108768D01*
Y45043D01*
X110039D01*
X110430Y45121D01*
X110760Y45342D01*
X110981Y45673D01*
X111059Y46063D01*
Y47138D01*
D02*
G37*
G36*
X110315Y106334D02*
X104409D01*
X104019Y106257D01*
X103689Y106036D01*
X103468Y105705D01*
X103390Y105315D01*
Y99410D01*
X103468Y99019D01*
X103689Y98689D01*
X104019Y98467D01*
X104409Y98390D01*
X110315D01*
X110705Y98467D01*
X111036Y98689D01*
X111257Y99019D01*
X111335Y99410D01*
Y105315D01*
X111257Y105705D01*
X111036Y106036D01*
X110705Y106257D01*
X110315Y106334D01*
D02*
G37*
G36*
X96862Y101862D02*
X93441D01*
X93511Y101330D01*
X93910Y100369D01*
X94543Y99543D01*
X95369Y98909D01*
X96330Y98511D01*
X96862Y98441D01*
Y101862D01*
D02*
G37*
G36*
X101283D02*
X97862D01*
Y98441D01*
X98394Y98511D01*
X99356Y98909D01*
X100181Y99543D01*
X100815Y100369D01*
X101213Y101330D01*
X101283Y101862D01*
D02*
G37*
G36*
X41653Y88618D02*
X39791D01*
Y83177D01*
X42673D01*
Y87598D01*
X42595Y87989D01*
X42375Y88319D01*
X42044Y88540D01*
X41653Y88618D01*
D02*
G37*
G36*
X183465Y110876D02*
X181763Y110742D01*
X180104Y110344D01*
X178527Y109691D01*
X177072Y108799D01*
X175774Y107691D01*
X174666Y106393D01*
X173774Y104938D01*
X173121Y103361D01*
X172722Y101701D01*
X172589Y100000D01*
X172722Y98299D01*
X173121Y96639D01*
X173774Y95062D01*
X174666Y93607D01*
X175774Y92309D01*
X177072Y91201D01*
X178527Y90309D01*
X180104Y89656D01*
X181763Y89258D01*
X183465Y89124D01*
X185166Y89258D01*
X186826Y89656D01*
X188402Y90309D01*
X189857Y91201D01*
X191155Y92309D01*
X192263Y93607D01*
X193155Y95062D01*
X193808Y96639D01*
X194207Y98299D01*
X194341Y100000D01*
X194207Y101701D01*
X193808Y103361D01*
X193155Y104938D01*
X192263Y106393D01*
X191155Y107691D01*
X189857Y108799D01*
X188402Y109691D01*
X186826Y110344D01*
X185166Y110742D01*
X183465Y110876D01*
D02*
G37*
G36*
X37795Y103924D02*
X36882Y103804D01*
X36030Y103451D01*
X35299Y102890D01*
X34738Y102159D01*
X34385Y101307D01*
X34265Y100394D01*
X34346Y99777D01*
X27716Y93147D01*
X23452Y97412D01*
X23585Y97986D01*
X23753Y98098D01*
X23974Y98429D01*
X24051Y98819D01*
Y101575D01*
X23974Y101965D01*
X23753Y102296D01*
X23422Y102517D01*
X23031Y102594D01*
X19488D01*
X19098Y102517D01*
X18767Y102296D01*
X18571Y102001D01*
X18307Y101972D01*
X18044Y102001D01*
X17847Y102296D01*
X17516Y102517D01*
X17126Y102594D01*
X13583D01*
X13193Y102517D01*
X12862Y102296D01*
X12641Y101965D01*
X12563Y101575D01*
Y98819D01*
X12641Y98429D01*
X12862Y98098D01*
X13193Y97877D01*
X13583Y97799D01*
X13825D01*
Y95276D01*
X13941Y94690D01*
X14273Y94194D01*
X14404Y94063D01*
X14307Y93827D01*
X14186Y92913D01*
X14307Y92000D01*
X14659Y91148D01*
X15220Y90417D01*
X15951Y89856D01*
X16187Y89758D01*
Y86528D01*
X16016Y86114D01*
X15900Y85236D01*
Y80118D01*
X16016Y79240D01*
X16354Y78422D01*
X16893Y77720D01*
X17596Y77181D01*
X18414Y76842D01*
X19291Y76727D01*
X20169Y76842D01*
X20987Y77181D01*
X21689Y77720D01*
X22228Y78422D01*
X22567Y79240D01*
X22683Y80118D01*
Y85236D01*
X22567Y86114D01*
X22228Y86932D01*
X21689Y87634D01*
X20987Y88173D01*
X20169Y88512D01*
X19291Y88627D01*
X19246Y88667D01*
Y89758D01*
X19482Y89856D01*
X20213Y90417D01*
X20774Y91148D01*
X21126Y92000D01*
X21247Y92913D01*
X21126Y93827D01*
X20774Y94678D01*
X20213Y95410D01*
X19482Y95971D01*
X18630Y96323D01*
X17717Y96444D01*
X17260Y96383D01*
X16884Y96713D01*
Y97799D01*
X17126D01*
X17516Y97877D01*
X17847Y98098D01*
X18044Y98392D01*
X18307Y98421D01*
X18571Y98392D01*
X18767Y98098D01*
X19098Y97877D01*
X19488Y97799D01*
X19730D01*
Y97441D01*
X19847Y96856D01*
X20178Y96359D01*
X26187Y90351D01*
Y86528D01*
X26016Y86114D01*
X25900Y85236D01*
Y80118D01*
X26016Y79240D01*
X26355Y78422D01*
X26893Y77720D01*
X27596Y77181D01*
X28414Y76842D01*
X29291Y76727D01*
X30169Y76842D01*
X30987Y77181D01*
X31689Y77720D01*
X32228Y78422D01*
X32567Y79240D01*
X32682Y80118D01*
Y85236D01*
X32567Y86114D01*
X32228Y86932D01*
X31689Y87634D01*
X30987Y88173D01*
X30169Y88512D01*
X29291Y88627D01*
X29246Y88667D01*
Y90351D01*
X36173Y97277D01*
X36882Y96984D01*
X37795Y96864D01*
X38709Y96984D01*
X39560Y97337D01*
X40292Y97897D01*
X40852Y98629D01*
X41205Y99480D01*
X41326Y100394D01*
X41205Y101307D01*
X40852Y102159D01*
X40292Y102890D01*
X39560Y103451D01*
X38709Y103804D01*
X37795Y103924D01*
D02*
G37*
G36*
X161165Y102650D02*
X157744D01*
Y99229D01*
X158276Y99299D01*
X159238Y99697D01*
X160063Y100330D01*
X160697Y101156D01*
X161095Y102118D01*
X161165Y102650D01*
D02*
G37*
G36*
X156744Y107071D02*
X156212Y107001D01*
X155251Y106602D01*
X154425Y105969D01*
X153791Y105143D01*
X153393Y104182D01*
X153323Y103650D01*
X156744D01*
Y107071D01*
D02*
G37*
G36*
X157744D02*
Y103650D01*
X161165D01*
X161095Y104182D01*
X160697Y105143D01*
X160063Y105969D01*
X159238Y106602D01*
X158276Y107001D01*
X157744Y107071D01*
D02*
G37*
G36*
X23031Y108500D02*
X19488D01*
X19098Y108422D01*
X18767Y108201D01*
X18571Y107907D01*
X18307Y107878D01*
X18044Y107907D01*
X17847Y108201D01*
X17516Y108422D01*
X17126Y108500D01*
X13583D01*
X13193Y108422D01*
X12862Y108201D01*
X12641Y107870D01*
X12593Y107632D01*
X10039D01*
X9454Y107515D01*
X8958Y107184D01*
X8367Y106593D01*
X8036Y106097D01*
X7919Y105512D01*
Y102790D01*
X7914Y102781D01*
X7797Y102196D01*
Y98198D01*
X7914Y97612D01*
X7919Y97604D01*
Y88307D01*
X7596Y88173D01*
X6893Y87634D01*
X6355Y86932D01*
X6016Y86114D01*
X5900Y85236D01*
Y80118D01*
X6016Y79240D01*
X6355Y78422D01*
X6893Y77720D01*
X7596Y77181D01*
X7762Y77112D01*
Y75604D01*
X7484Y75548D01*
X7153Y75327D01*
X6932Y74997D01*
X6854Y74606D01*
Y71063D01*
X6932Y70673D01*
X7153Y70342D01*
Y69815D01*
X6932Y69485D01*
X6854Y69095D01*
Y65551D01*
X6932Y65161D01*
X7153Y64830D01*
X7484Y64609D01*
X7874Y64532D01*
X7919D01*
Y63779D01*
X8036Y63194D01*
X8367Y62698D01*
X10336Y60730D01*
X10832Y60398D01*
X11417Y60282D01*
X15349D01*
X15447Y60046D01*
X16008Y59315D01*
X16739Y58754D01*
X17590Y58401D01*
X18504Y58281D01*
X19418Y58401D01*
X20269Y58754D01*
X21000Y59315D01*
X21561Y60046D01*
X21914Y60897D01*
X22034Y61811D01*
X21914Y62725D01*
X21561Y63576D01*
X21000Y64307D01*
X20269Y64868D01*
X19418Y65221D01*
X18504Y65341D01*
X18010Y65276D01*
X17845Y65376D01*
X17555Y65721D01*
Y66823D01*
X14961D01*
Y67823D01*
X17555D01*
Y69095D01*
X17477Y69485D01*
X17256Y69815D01*
Y70342D01*
X17477Y70673D01*
X17555Y71063D01*
Y72335D01*
X14961D01*
Y72835D01*
X14461D01*
Y75626D01*
X13386D01*
X12996Y75548D01*
X12665Y75327D01*
X12468Y75033D01*
X12205Y75004D01*
X11941Y75033D01*
X11745Y75327D01*
X11414Y75548D01*
X11024Y75626D01*
X10821D01*
Y77112D01*
X10987Y77181D01*
X11689Y77720D01*
X12228Y78422D01*
X12567Y79240D01*
X12683Y80118D01*
Y85236D01*
X12567Y86114D01*
X12228Y86932D01*
X11689Y87634D01*
X10987Y88173D01*
X10978Y88177D01*
Y98075D01*
X10862Y98661D01*
X10856Y98669D01*
Y101725D01*
X10862Y101733D01*
X10978Y102318D01*
Y104573D01*
X12593D01*
X12641Y104334D01*
X12862Y104004D01*
X13193Y103782D01*
X13583Y103705D01*
X17126D01*
X17516Y103782D01*
X17847Y104004D01*
X18044Y104298D01*
X18307Y104327D01*
X18571Y104298D01*
X18767Y104004D01*
X19098Y103782D01*
X19488Y103705D01*
X23031D01*
X23422Y103782D01*
X23753Y104004D01*
X23974Y104334D01*
X24051Y104724D01*
Y107480D01*
X23974Y107870D01*
X23753Y108201D01*
X23422Y108422D01*
X23031Y108500D01*
D02*
G37*
G36*
X147244Y107136D02*
X146212Y107001D01*
X145251Y106602D01*
X144425Y105969D01*
X143791Y105143D01*
X143393Y104182D01*
X143257Y103150D01*
X143393Y102118D01*
X143791Y101156D01*
X144425Y100330D01*
X144935Y99939D01*
X144766Y99439D01*
X139723D01*
X139553Y99939D01*
X140063Y100330D01*
X140697Y101156D01*
X141095Y102118D01*
X141231Y103150D01*
X141095Y104182D01*
X140697Y105143D01*
X140063Y105969D01*
X139237Y106602D01*
X138276Y107001D01*
X137244Y107136D01*
X136212Y107001D01*
X135251Y106602D01*
X134425Y105969D01*
X133791Y105143D01*
X133393Y104182D01*
X133257Y103150D01*
X133393Y102118D01*
X133791Y101156D01*
X134425Y100330D01*
X134935Y99939D01*
X134766Y99439D01*
X129799D01*
X129214Y99322D01*
X128718Y98991D01*
X126532Y96805D01*
X83071D01*
X82486Y96689D01*
X81989Y96357D01*
X78840Y93207D01*
X78508Y92711D01*
X78392Y92126D01*
Y90409D01*
X77930Y90217D01*
X68588Y99559D01*
X68686Y99795D01*
X68806Y100709D01*
X68686Y101622D01*
X68333Y102474D01*
X67772Y103205D01*
X67041Y103766D01*
X66189Y104119D01*
X65276Y104239D01*
X64362Y104119D01*
X63511Y103766D01*
X62779Y103205D01*
X62218Y102474D01*
X61866Y101622D01*
X61745Y100709D01*
X61866Y99795D01*
X61939Y99617D01*
X61588Y99159D01*
X60984Y99239D01*
X60071Y99119D01*
X59219Y98766D01*
X58488Y98205D01*
X57927Y97474D01*
X57574Y96622D01*
X57454Y95709D01*
X57574Y94795D01*
X57927Y93944D01*
X58488Y93212D01*
X59219Y92651D01*
X60071Y92299D01*
X60984Y92178D01*
X61898Y92299D01*
X62134Y92396D01*
X73077Y81453D01*
Y73419D01*
X72577Y73268D01*
X72538Y73326D01*
X72042Y73657D01*
X71457Y73773D01*
X49016D01*
X48430Y73657D01*
X47934Y73326D01*
X46163Y71554D01*
X45831Y71058D01*
X45715Y70473D01*
Y67555D01*
X45472D01*
X45082Y67477D01*
X44752Y67256D01*
X44530Y66926D01*
X44453Y66535D01*
Y63779D01*
X44530Y63389D01*
X44752Y63059D01*
X45082Y62837D01*
X45472Y62760D01*
X47936D01*
X48127Y62298D01*
X47479Y61650D01*
X45472D01*
X45082Y61572D01*
X44752Y61351D01*
X44530Y61020D01*
X44453Y60630D01*
Y57874D01*
X44530Y57484D01*
X44752Y57153D01*
X45082Y56932D01*
X45472Y56854D01*
X45858D01*
X46163Y56399D01*
X47738Y54824D01*
X47997Y54650D01*
X48208Y54377D01*
X48125Y54010D01*
X48074Y53934D01*
X47996Y53543D01*
Y52469D01*
X50788D01*
Y51468D01*
X47996D01*
Y50394D01*
X48074Y50003D01*
X48295Y49673D01*
X48589Y49476D01*
X48618Y49213D01*
X48589Y48949D01*
X48295Y48752D01*
X48074Y48422D01*
X47996Y48031D01*
Y44882D01*
X48074Y44492D01*
X48295Y44161D01*
X48626Y43940D01*
X49016Y43862D01*
X52559D01*
X52949Y43940D01*
X52956Y43944D01*
X53347Y44129D01*
X53737Y43944D01*
X53744Y43940D01*
X54134Y43862D01*
X56337D01*
X59155Y41045D01*
X59213Y41006D01*
X59061Y40506D01*
X58268D01*
X57682Y40389D01*
X57186Y40058D01*
X54037Y36908D01*
X53705Y36412D01*
X53589Y35827D01*
Y32682D01*
X53353Y32585D01*
X52622Y32024D01*
X52061Y31293D01*
X51708Y30441D01*
X51588Y29528D01*
X51708Y28614D01*
X52061Y27762D01*
X52622Y27031D01*
X53353Y26470D01*
X54204Y26118D01*
X55118Y25997D01*
X56032Y26118D01*
X56883Y26470D01*
X57614Y27031D01*
X58175Y27762D01*
X58528Y28614D01*
X58648Y29528D01*
X58528Y30441D01*
X58175Y31293D01*
X57614Y32024D01*
X56883Y32585D01*
X56647Y32682D01*
Y35193D01*
X58901Y37447D01*
X59957D01*
X60605Y37015D01*
X61417Y36853D01*
X64567D01*
X65380Y37015D01*
X66069Y37475D01*
X66529Y38164D01*
X66690Y38976D01*
X66529Y39789D01*
X66278Y40163D01*
X66102Y40551D01*
X66278Y40939D01*
X66529Y41313D01*
X66690Y42126D01*
X66529Y42939D01*
X66278Y43313D01*
X66102Y43701D01*
X66278Y44089D01*
X66529Y44463D01*
X66591Y44776D01*
X62992D01*
Y45776D01*
X66591D01*
X66529Y46088D01*
X66323Y46396D01*
X66590Y46896D01*
X67323D01*
X67908Y47012D01*
X68404Y47344D01*
X72341Y51281D01*
X72611Y51684D01*
X73157Y51845D01*
X74509Y50493D01*
X75005Y50162D01*
X75591Y50045D01*
X92071D01*
X92338Y49545D01*
X92133Y49238D01*
X92071Y48925D01*
X95669D01*
Y47925D01*
X92071D01*
X92133Y47613D01*
X92383Y47238D01*
X92560Y46850D01*
X92383Y46463D01*
X92133Y46088D01*
X91971Y45276D01*
X92133Y44463D01*
X92383Y44089D01*
X92560Y43701D01*
X92383Y43313D01*
X92133Y42939D01*
X91971Y42126D01*
X92133Y41313D01*
X92383Y40939D01*
X92560Y40551D01*
X92383Y40163D01*
X92133Y39789D01*
X91971Y38976D01*
X92133Y38164D01*
X92593Y37475D01*
X93282Y37015D01*
X94095Y36853D01*
X97244D01*
X98057Y37015D01*
X98704Y37447D01*
X126532D01*
X128786Y35193D01*
Y16535D01*
X128866Y16130D01*
X128405Y15883D01*
X115648Y28640D01*
X115152Y28972D01*
X114567Y29089D01*
X92760D01*
X91884Y29964D01*
Y30627D01*
X92316Y31274D01*
X92478Y32087D01*
Y35236D01*
X92316Y36049D01*
X91856Y36738D01*
X91167Y37198D01*
X90354Y37360D01*
X89542Y37198D01*
X88853Y36738D01*
X88706D01*
X88017Y37198D01*
X87205Y37360D01*
X86392Y37198D01*
X86018Y36948D01*
X85630Y36771D01*
X85242Y36948D01*
X84868Y37198D01*
X84055Y37360D01*
X83242Y37198D01*
X82554Y36738D01*
X82407D01*
X81718Y37198D01*
X80905Y37360D01*
X80093Y37198D01*
X79404Y36738D01*
X79257D01*
X78569Y37198D01*
X77756Y37360D01*
X76943Y37198D01*
X76254Y36738D01*
X76108D01*
X75419Y37198D01*
X74606Y37360D01*
X73794Y37198D01*
X73105Y36738D01*
X72958D01*
X72269Y37198D01*
X71457Y37360D01*
X70644Y37198D01*
X70270Y36948D01*
X69882Y36771D01*
X69494Y36948D01*
X69120Y37198D01*
X68307Y37360D01*
X67494Y37198D01*
X66806Y36738D01*
X66345Y36049D01*
X66184Y35236D01*
Y33701D01*
X56005Y23522D01*
X55674Y23026D01*
X55557Y22441D01*
Y16147D01*
X55322Y16049D01*
X54590Y15488D01*
X54029Y14757D01*
X53677Y13906D01*
X53556Y12992D01*
X53677Y12078D01*
X54029Y11227D01*
X54590Y10496D01*
X55322Y9935D01*
X56173Y9582D01*
X57087Y9462D01*
X58000Y9582D01*
X58852Y9935D01*
X59583Y10496D01*
X60144Y11227D01*
X60496Y12078D01*
X60617Y12992D01*
X60496Y13906D01*
X60144Y14757D01*
X59583Y15488D01*
X58852Y16049D01*
X58616Y16147D01*
Y21807D01*
X67158Y30349D01*
X67494Y30125D01*
X68307Y29963D01*
X69120Y30125D01*
X69427Y30330D01*
X69927Y30063D01*
Y23271D01*
X69260Y22604D01*
X69024Y22701D01*
X68110Y22821D01*
X67197Y22701D01*
X66345Y22349D01*
X65614Y21788D01*
X65053Y21057D01*
X64700Y20205D01*
X64580Y19291D01*
X64700Y18378D01*
X65053Y17526D01*
X65614Y16795D01*
X66345Y16234D01*
X67197Y15881D01*
X68110Y15761D01*
X69024Y15881D01*
X69875Y16234D01*
X70606Y16795D01*
X71167Y17526D01*
X71520Y18378D01*
X71640Y19291D01*
X71520Y20205D01*
X71422Y20441D01*
X72538Y21556D01*
X72577Y21614D01*
X73077Y21463D01*
Y20669D01*
X73193Y20084D01*
X73525Y19588D01*
X80415Y12698D01*
X80911Y12367D01*
X81496Y12250D01*
X88343D01*
X89601Y10992D01*
X89504Y10756D01*
X89383Y9843D01*
X89504Y8929D01*
X89856Y8077D01*
X90417Y7346D01*
X91148Y6785D01*
X92000Y6433D01*
X92913Y6312D01*
X93827Y6433D01*
X94678Y6785D01*
X95410Y7346D01*
X95971Y8077D01*
X96323Y8929D01*
X96444Y9843D01*
X96323Y10756D01*
X96121Y11246D01*
X96544Y11529D01*
X97475Y10598D01*
X97378Y10362D01*
X97257Y9449D01*
X97378Y8535D01*
X97730Y7684D01*
X98291Y6953D01*
X99022Y6392D01*
X99874Y6039D01*
X100787Y5919D01*
X101701Y6039D01*
X102552Y6392D01*
X103284Y6953D01*
X103845Y7684D01*
X104197Y8535D01*
X104318Y9449D01*
X104214Y10239D01*
X104569Y10474D01*
X104659Y10501D01*
X105743Y9417D01*
X105645Y9181D01*
X105525Y8268D01*
X105645Y7354D01*
X105998Y6503D01*
X106559Y5771D01*
X107290Y5210D01*
X108141Y4858D01*
X109055Y4738D01*
X109969Y4858D01*
X110820Y5210D01*
X111551Y5771D01*
X112112Y6503D01*
X112465Y7354D01*
X112585Y8268D01*
X112481Y9058D01*
X112836Y9292D01*
X112927Y9320D01*
X116373Y5874D01*
X116275Y5638D01*
X116155Y4724D01*
X116275Y3811D01*
X116628Y2959D01*
X117189Y2228D01*
X117920Y1667D01*
X118771Y1314D01*
X119685Y1194D01*
X120599Y1314D01*
X121450Y1667D01*
X122181Y2228D01*
X122742Y2959D01*
X123095Y3811D01*
X123215Y4724D01*
X123095Y5638D01*
X122742Y6489D01*
X122181Y7221D01*
X121450Y7782D01*
X120599Y8134D01*
X119685Y8255D01*
X118771Y8134D01*
X118536Y8037D01*
X103799Y22774D01*
X104006Y23274D01*
X109996D01*
X122672Y10598D01*
X122574Y10362D01*
X122454Y9449D01*
X122574Y8535D01*
X122927Y7684D01*
X123488Y6953D01*
X124219Y6392D01*
X125071Y6039D01*
X125984Y5919D01*
X126898Y6039D01*
X127749Y6392D01*
X128481Y6953D01*
X129042Y7684D01*
X129394Y8535D01*
X129515Y9449D01*
X129462Y9845D01*
X129929Y10135D01*
X130123Y10004D01*
X130709Y9888D01*
X144488D01*
X145073Y10004D01*
X145570Y10336D01*
X149900Y14667D01*
X150232Y15163D01*
X150617Y15368D01*
X150661Y15350D01*
X151575Y15230D01*
X152489Y15350D01*
X153340Y15703D01*
X154071Y16264D01*
X154632Y16995D01*
X154985Y17846D01*
X155105Y18760D01*
Y23760D01*
X154985Y24674D01*
X154632Y25525D01*
X154071Y26256D01*
X153340Y26817D01*
X152489Y27170D01*
X151575Y27290D01*
X150661Y27170D01*
X149810Y26817D01*
X149079Y26256D01*
X148518Y25525D01*
X148165Y24674D01*
X148045Y23760D01*
Y19916D01*
X147681Y19606D01*
X147231Y19755D01*
Y23760D01*
X147111Y24674D01*
X146758Y25525D01*
X146197Y26256D01*
X145466Y26817D01*
X144615Y27170D01*
X143701Y27290D01*
X142787Y27170D01*
X141936Y26817D01*
X141205Y26256D01*
X140644Y25525D01*
X140291Y24674D01*
X140171Y23760D01*
Y18760D01*
X140291Y17846D01*
X140644Y16995D01*
X141205Y16264D01*
X141347Y16154D01*
X141384Y15648D01*
X141059Y15309D01*
X137900D01*
X137731Y15809D01*
X138323Y16264D01*
X138884Y16995D01*
X139237Y17846D01*
X139357Y18760D01*
Y23760D01*
X139237Y24674D01*
X138884Y25525D01*
X138323Y26256D01*
X137592Y26817D01*
X136962Y27078D01*
Y35433D01*
X136846Y36018D01*
X136514Y36514D01*
X129822Y43207D01*
X129325Y43539D01*
X128740Y43655D01*
X99268D01*
X99000Y44155D01*
X99206Y44463D01*
X99355Y45212D01*
X99547Y45308D01*
X99856Y45363D01*
X99870Y45342D01*
X100200Y45121D01*
X100591Y45043D01*
X101862D01*
Y47638D01*
X102862D01*
Y45043D01*
X104134D01*
X104524Y45121D01*
X104855Y45342D01*
X105052Y45636D01*
X105315Y45665D01*
X105578Y45636D01*
X105775Y45342D01*
X106106Y45121D01*
X106496Y45043D01*
X107768D01*
Y47638D01*
X108268D01*
Y48138D01*
X111059D01*
Y49213D01*
X110981Y49603D01*
X110760Y49934D01*
X110466Y50130D01*
X110437Y50394D01*
X110466Y50657D01*
X110760Y50854D01*
X110981Y51185D01*
X111059Y51575D01*
Y51620D01*
X133618D01*
X157862Y27377D01*
X157804Y26867D01*
X157684Y26817D01*
X156953Y26256D01*
X156392Y25525D01*
X156039Y24674D01*
X155919Y23760D01*
Y18760D01*
X156039Y17846D01*
X156392Y16995D01*
X156953Y16264D01*
X157684Y15703D01*
X157920Y15605D01*
Y14602D01*
X157480D01*
X157090Y14525D01*
X156759Y14304D01*
X156563Y14009D01*
X156299Y13980D01*
X156036Y14009D01*
X155839Y14304D01*
X155508Y14525D01*
X155118Y14602D01*
X154043D01*
Y11811D01*
X153543D01*
Y11311D01*
X150949D01*
Y10039D01*
X151026Y9649D01*
X151248Y9318D01*
X151248Y8792D01*
X151026Y8461D01*
X150949Y8071D01*
Y6799D01*
X153543D01*
Y6299D01*
X154043D01*
Y3508D01*
X155118D01*
X155508Y3586D01*
X155839Y3807D01*
X156036Y4101D01*
X156299Y4130D01*
X156563Y4101D01*
X156759Y3807D01*
X157090Y3586D01*
X157480Y3508D01*
X160630D01*
X161020Y3586D01*
X161351Y3807D01*
X161572Y4137D01*
X161650Y4528D01*
Y8071D01*
X161572Y8461D01*
X161351Y8792D01*
X161351Y9318D01*
X161572Y9649D01*
X161650Y10039D01*
Y13583D01*
X161572Y13973D01*
X161351Y14304D01*
X161020Y14525D01*
X160978Y14533D01*
Y15605D01*
X161214Y15703D01*
X161945Y16264D01*
X162506Y16995D01*
X162859Y17846D01*
X162979Y18760D01*
Y23760D01*
X162859Y24674D01*
X162506Y25525D01*
X161945Y26256D01*
X161214Y26817D01*
X160978Y26915D01*
Y27953D01*
X160862Y28538D01*
X160530Y29034D01*
X135333Y54231D01*
X134837Y54563D01*
X134252Y54679D01*
X111059D01*
Y54724D01*
X110981Y55115D01*
X110760Y55445D01*
X110430Y55666D01*
X110039Y55744D01*
X106496D01*
X106106Y55666D01*
X105775Y55445D01*
X105578Y55151D01*
X105315Y55122D01*
X105052Y55151D01*
X104855Y55445D01*
X104524Y55666D01*
X104134Y55744D01*
X100591D01*
X100200Y55666D01*
X99870Y55445D01*
X99765Y55289D01*
X99234Y55395D01*
X99206Y55537D01*
X98956Y55911D01*
X98779Y56299D01*
X98956Y56687D01*
X99206Y57061D01*
X99268Y57374D01*
X95669D01*
X92071D01*
X92133Y57061D01*
X92383Y56687D01*
X92560Y56299D01*
X92383Y55911D01*
X92133Y55537D01*
X92071Y55225D01*
X95669D01*
Y54224D01*
X92071D01*
X92133Y53912D01*
X92338Y53604D01*
X92071Y53104D01*
X76224D01*
X74572Y54756D01*
X74670Y54992D01*
X74790Y55905D01*
X74670Y56819D01*
X74317Y57671D01*
X73756Y58402D01*
X73025Y58963D01*
X72174Y59315D01*
X71260Y59436D01*
X70346Y59315D01*
X69495Y58963D01*
X68764Y58402D01*
X68203Y57671D01*
X67850Y56819D01*
X67730Y55905D01*
X67850Y54992D01*
X68203Y54140D01*
X68764Y53409D01*
X69145Y53117D01*
X69188Y52453D01*
X66994Y50260D01*
X66812Y50287D01*
X66567Y50698D01*
X66543Y50832D01*
X66591Y51075D01*
X62992D01*
Y52075D01*
X66591D01*
X66529Y52387D01*
X66278Y52762D01*
X66102Y53150D01*
X66278Y53537D01*
X66529Y53912D01*
X66591Y54224D01*
X62992D01*
Y55224D01*
X66591D01*
X66529Y55537D01*
X66278Y55911D01*
X66102Y56299D01*
X66278Y56687D01*
X66529Y57061D01*
X66690Y57874D01*
X66529Y58687D01*
X66278Y59061D01*
X66102Y59449D01*
X66278Y59837D01*
X66529Y60211D01*
X66591Y60524D01*
X62992D01*
X59393D01*
X59456Y60211D01*
X59661Y59903D01*
X59394Y59403D01*
X59055D01*
X58470Y59287D01*
X57974Y58955D01*
X56745Y57727D01*
X56077Y57733D01*
X55941Y57874D01*
Y58752D01*
X53150D01*
Y59252D01*
X52650D01*
Y61650D01*
X52458D01*
X52267Y62112D01*
X52915Y62760D01*
X54921D01*
X55311Y62838D01*
X55642Y63059D01*
X55863Y63389D01*
X55941Y63779D01*
Y66535D01*
X55863Y66926D01*
X55642Y67256D01*
X55311Y67477D01*
X54921Y67555D01*
X51378D01*
X50988Y67477D01*
X50657Y67256D01*
X50460Y66962D01*
X50197Y66933D01*
X49933Y66962D01*
X49737Y67256D01*
X49406Y67477D01*
X49016Y67555D01*
X48774D01*
Y69839D01*
X49649Y70715D01*
X69927D01*
Y69937D01*
X69427Y69670D01*
X69120Y69875D01*
X68807Y69937D01*
Y66339D01*
Y62740D01*
X69120Y62802D01*
X69809Y63262D01*
X69955D01*
X70644Y62802D01*
X71457Y62640D01*
X72269Y62802D01*
X72958Y63262D01*
X73105D01*
X73794Y62802D01*
X74606Y62640D01*
X75419Y62802D01*
X75793Y63052D01*
X76181Y63229D01*
X76569Y63052D01*
X76943Y62802D01*
X77756Y62640D01*
X78569Y62802D01*
X79257Y63262D01*
X79404D01*
X80093Y62802D01*
X80905Y62640D01*
X81718Y62802D01*
X82407Y63262D01*
X82554D01*
X83242Y62802D01*
X84055Y62640D01*
X84868Y62802D01*
X85242Y63052D01*
X85630Y63229D01*
X86018Y63052D01*
X86392Y62802D01*
X86705Y62740D01*
Y66339D01*
Y69937D01*
X86392Y69875D01*
X86018Y69625D01*
X85858Y69552D01*
X85388Y69774D01*
Y79583D01*
X85727Y79922D01*
X86059Y80419D01*
X86175Y81004D01*
Y81884D01*
X86411Y81982D01*
X87142Y82543D01*
X87703Y83274D01*
X88056Y84126D01*
X88176Y85039D01*
X88056Y85953D01*
X87703Y86804D01*
X87142Y87536D01*
X86411Y88097D01*
X85559Y88449D01*
X84646Y88570D01*
X83732Y88449D01*
X82881Y88097D01*
X82149Y87536D01*
X81951Y87277D01*
X81451Y87446D01*
Y91492D01*
X83704Y93746D01*
X127165D01*
X127751Y93863D01*
X128247Y94194D01*
X130433Y96380D01*
X133044D01*
X133272Y96102D01*
Y90197D01*
X133349Y89807D01*
X133570Y89476D01*
X133901Y89255D01*
X134291Y89177D01*
X139053D01*
X142172Y86059D01*
Y84398D01*
X141936Y84300D01*
X141205Y83739D01*
X140644Y83008D01*
X140291Y82157D01*
X140171Y81243D01*
Y76243D01*
X140291Y75330D01*
X140644Y74478D01*
X141205Y73747D01*
X141853Y73249D01*
X141900Y72964D01*
X141853Y72679D01*
X141205Y72181D01*
X140644Y71450D01*
X140291Y70599D01*
X140171Y69685D01*
X140291Y68771D01*
X140644Y67920D01*
X141205Y67189D01*
X141936Y66628D01*
X142787Y66275D01*
X143701Y66155D01*
X144615Y66275D01*
X145466Y66628D01*
X146197Y67189D01*
X146758Y67920D01*
X147111Y68771D01*
X147231Y69685D01*
X147111Y70599D01*
X146758Y71450D01*
X146197Y72181D01*
X145548Y72679D01*
X145502Y72964D01*
X145548Y73249D01*
X146197Y73747D01*
X146758Y74478D01*
X147111Y75330D01*
X147231Y76243D01*
Y81243D01*
X147111Y82157D01*
X146758Y83008D01*
X146197Y83739D01*
X145466Y84300D01*
X145230Y84398D01*
Y86693D01*
X145114Y87278D01*
X144782Y87774D01*
X141216Y91340D01*
Y96102D01*
X141444Y96380D01*
X144213D01*
X144357Y95880D01*
X143791Y95143D01*
X143393Y94182D01*
X143257Y93150D01*
X143393Y92118D01*
X143791Y91156D01*
X144425Y90330D01*
X145251Y89697D01*
X146212Y89299D01*
X147244Y89163D01*
X148276Y89299D01*
X148740Y89491D01*
X151911Y86320D01*
X152407Y85989D01*
X152992Y85872D01*
X156847D01*
X157526Y85193D01*
Y84573D01*
X156953Y84133D01*
X156392Y83402D01*
X156039Y82551D01*
X155919Y81637D01*
Y76637D01*
X156039Y75723D01*
X156392Y74872D01*
X156953Y74141D01*
X157684Y73580D01*
X157920Y73482D01*
Y72840D01*
X157684Y72742D01*
X156953Y72181D01*
X156392Y71450D01*
X156039Y70599D01*
X155919Y69685D01*
X155938Y69536D01*
X155451Y69405D01*
X155419Y69482D01*
X154858Y70213D01*
X154127Y70774D01*
X153892Y70871D01*
Y74003D01*
X154071Y74141D01*
X154632Y74872D01*
X154985Y75723D01*
X155105Y76637D01*
Y81637D01*
X154985Y82551D01*
X154632Y83402D01*
X154071Y84133D01*
X153340Y84694D01*
X152489Y85047D01*
X151575Y85167D01*
X150661Y85047D01*
X149810Y84694D01*
X149079Y84133D01*
X148518Y83402D01*
X148165Y82551D01*
X148045Y81637D01*
Y76637D01*
X148165Y75723D01*
X148518Y74872D01*
X149079Y74141D01*
X149810Y73580D01*
X150661Y73227D01*
X150833Y73204D01*
Y70871D01*
X150597Y70774D01*
X149866Y70213D01*
X149305Y69482D01*
X148952Y68630D01*
X148832Y67716D01*
X148952Y66803D01*
X149305Y65951D01*
X149866Y65220D01*
X150597Y64659D01*
X151449Y64307D01*
X152362Y64186D01*
X153276Y64307D01*
X154127Y64659D01*
X154858Y65220D01*
X155419Y65951D01*
X155772Y66803D01*
X155892Y67716D01*
X155873Y67866D01*
X156360Y67997D01*
X156392Y67920D01*
X156953Y67189D01*
X157684Y66628D01*
X158535Y66275D01*
X159449Y66155D01*
X160363Y66275D01*
X161214Y66628D01*
X161945Y67189D01*
X162506Y67920D01*
X162859Y68771D01*
X162979Y69685D01*
X162859Y70599D01*
X162506Y71450D01*
X161945Y72181D01*
X161214Y72742D01*
X160978Y72840D01*
Y73482D01*
X161214Y73580D01*
X161945Y74141D01*
X162506Y74872D01*
X162859Y75723D01*
X162979Y76637D01*
Y81637D01*
X162859Y82551D01*
X162506Y83402D01*
X161945Y84133D01*
X161214Y84694D01*
X160584Y84955D01*
Y85827D01*
X160468Y86412D01*
X160137Y86908D01*
X158562Y88483D01*
X158125Y88775D01*
X158118Y89014D01*
X158190Y89287D01*
X158276Y89299D01*
X159238Y89697D01*
X160063Y90330D01*
X160697Y91156D01*
X161095Y92118D01*
X161231Y93150D01*
X161095Y94182D01*
X160697Y95143D01*
X160063Y95969D01*
X159238Y96602D01*
X158470Y96920D01*
X158326Y97136D01*
X156737Y98725D01*
X156744Y98740D01*
Y102650D01*
X153323D01*
X153393Y102118D01*
X153791Y101156D01*
X154425Y100330D01*
X154935Y99939D01*
X154766Y99439D01*
X149723D01*
X149553Y99939D01*
X150063Y100330D01*
X150697Y101156D01*
X151095Y102118D01*
X151231Y103150D01*
X151095Y104182D01*
X150697Y105143D01*
X150063Y105969D01*
X149238Y106602D01*
X148276Y107001D01*
X147244Y107136D01*
D02*
G37*
G36*
X96862Y106283D02*
X96330Y106213D01*
X95369Y105815D01*
X94543Y105181D01*
X93910Y104356D01*
X93511Y103394D01*
X93441Y102862D01*
X96862D01*
Y106283D01*
D02*
G37*
G36*
X97862Y106283D02*
Y102862D01*
X101283D01*
X101213Y103394D01*
X100815Y104356D01*
X100181Y105181D01*
X99356Y105815D01*
X98394Y106213D01*
X97862Y106283D01*
D02*
G37*
G36*
X38791Y82177D02*
X35910D01*
Y77756D01*
X35987Y77366D01*
X36208Y77035D01*
X36539Y76814D01*
X36929Y76736D01*
X38791D01*
Y82177D01*
D02*
G37*
G36*
X42673D02*
X39791D01*
Y76736D01*
X41653D01*
X42044Y76814D01*
X42375Y77035D01*
X42595Y77366D01*
X42673Y77756D01*
Y82177D01*
D02*
G37*
G36*
X190445Y85101D02*
X190031Y85047D01*
X189180Y84694D01*
X188449Y84133D01*
X187888Y83402D01*
X187535Y82551D01*
X187415Y81637D01*
Y79637D01*
X190445D01*
Y85101D01*
D02*
G37*
G36*
X67244Y79421D02*
X64280D01*
Y76457D01*
X64693Y76511D01*
X65545Y76864D01*
X66276Y77425D01*
X66837Y78156D01*
X67189Y79008D01*
X67244Y79421D01*
D02*
G37*
G36*
X194475Y78637D02*
X191445D01*
Y73172D01*
X191858Y73227D01*
X192710Y73580D01*
X193441Y74141D01*
X194002Y74872D01*
X194355Y75723D01*
X194475Y76637D01*
Y78637D01*
D02*
G37*
G36*
X16535Y75626D02*
X15461D01*
Y73335D01*
X17555D01*
Y74606D01*
X17477Y74997D01*
X17256Y75327D01*
X16926Y75548D01*
X16535Y75626D01*
D02*
G37*
G36*
X63279Y79421D02*
X60315D01*
X60370Y79008D01*
X60722Y78156D01*
X61283Y77425D01*
X62014Y76864D01*
X62866Y76511D01*
X63279Y76457D01*
Y79421D01*
D02*
G37*
G36*
Y83386D02*
X62866Y83331D01*
X62014Y82978D01*
X61283Y82418D01*
X60722Y81686D01*
X60370Y80835D01*
X60315Y80421D01*
X63279D01*
Y83386D01*
D02*
G37*
G36*
X64280D02*
Y80421D01*
X67244D01*
X67189Y80835D01*
X66837Y81686D01*
X66276Y82418D01*
X65545Y82978D01*
X64693Y83331D01*
X64280Y83386D01*
D02*
G37*
G36*
X38791Y88618D02*
X36929D01*
X36539Y88540D01*
X36208Y88319D01*
X35987Y87989D01*
X35910Y87598D01*
Y83177D01*
X38791D01*
Y88618D01*
D02*
G37*
G36*
X138327Y85156D02*
X136327D01*
Y79637D01*
X139346D01*
Y84137D01*
X139269Y84527D01*
X139048Y84858D01*
X138717Y85079D01*
X138327Y85156D01*
D02*
G37*
G36*
X135327D02*
X133327D01*
X132937Y85079D01*
X132606Y84858D01*
X132385Y84527D01*
X132307Y84137D01*
Y79637D01*
X135327D01*
Y85156D01*
D02*
G37*
G36*
X191445Y85101D02*
Y79637D01*
X194475D01*
Y81637D01*
X194355Y82551D01*
X194002Y83402D01*
X193441Y84133D01*
X192710Y84694D01*
X191858Y85047D01*
X191445Y85101D01*
D02*
G37*
%LPD*%
G36*
X76227Y87595D02*
Y83262D01*
X75726Y83110D01*
X75688Y83168D01*
X64297Y94559D01*
X64394Y94795D01*
X64514Y95709D01*
X64394Y96622D01*
X64321Y96800D01*
X64672Y97258D01*
X65276Y97179D01*
X66189Y97299D01*
X66425Y97396D01*
X76227Y87595D01*
D02*
G37*
G36*
X126555Y13408D02*
X126321Y12935D01*
X125984Y12979D01*
X125071Y12859D01*
X124835Y12761D01*
X112066Y25530D01*
X112273Y26030D01*
X113933D01*
X126555Y13408D01*
D02*
G37*
D14*
X102362Y53150D02*
D03*
Y47638D02*
D03*
X108268Y53150D02*
D03*
Y47638D02*
D03*
X50787Y46457D02*
D03*
Y51968D02*
D03*
X55905Y46457D02*
D03*
Y51968D02*
D03*
D15*
X9449Y72835D02*
D03*
X14961D02*
D03*
X9449Y67323D02*
D03*
X14961D02*
D03*
X159055Y6299D02*
D03*
X153543D02*
D03*
X159055Y11811D02*
D03*
X153543D02*
D03*
D16*
X17717Y82677D02*
Y92913D01*
X27716Y82677D02*
Y90984D01*
X110630Y24803D02*
X125984Y9449D01*
X90158Y24803D02*
X110630D01*
X114567Y27559D02*
X130709Y11417D01*
X92126Y27559D02*
X114567D01*
X102362Y22047D02*
X119685Y4724D01*
X79921Y92126D02*
X83071Y95276D01*
X127165D01*
X129799Y97909D01*
X155390D01*
X157244Y96055D01*
X47244Y59252D02*
Y59252D01*
X53150Y65158D01*
X50787Y51968D02*
X55905D01*
Y46457D02*
X60236Y42126D01*
X62992D01*
X47244Y57480D02*
Y59252D01*
Y57480D02*
X48819Y55905D01*
X57087D01*
X59055Y57874D01*
X62992D01*
X47244Y65158D02*
Y70473D01*
X49016Y72244D01*
X71457D01*
Y66339D02*
Y72244D01*
X57087Y12992D02*
Y22441D01*
X68307Y33661D01*
X68110Y19291D02*
X71457Y22638D01*
Y33661D01*
X93669Y16567D02*
X100787Y9449D01*
X98425Y18898D02*
X109055Y8268D01*
X85827Y18898D02*
X98425D01*
X87795Y22047D02*
X102362D01*
X88976Y13780D02*
X92913Y9843D01*
X143701Y69685D02*
X143701Y69685D01*
Y78743D01*
X58268Y38976D02*
X62992D01*
X55118Y35827D02*
X58268Y38976D01*
X55118Y29528D02*
Y35827D01*
X159449Y69685D02*
X159449Y69685D01*
Y79137D01*
X74606Y20669D02*
Y33661D01*
Y20669D02*
X81496Y13780D01*
X88976D01*
X83039Y16567D02*
X93669D01*
X77756Y21850D02*
X83039Y16567D01*
X80905Y23819D02*
X85827Y18898D01*
X167323Y69291D02*
X167323Y69291D01*
Y79137D01*
X77756Y21850D02*
Y33661D01*
X175197Y68898D02*
Y79137D01*
X80905Y23819D02*
Y33661D01*
X183071Y68504D02*
X183071Y68504D01*
X183071Y68504D02*
Y79137D01*
X190945Y9843D02*
X190945Y9843D01*
X84055Y25787D02*
Y33661D01*
Y25787D02*
X87795Y22047D01*
X87205Y27756D02*
X90158Y24803D01*
X90354Y29331D02*
X92126Y27559D01*
X90354Y29331D02*
Y33661D01*
X87205Y27756D02*
Y33661D01*
X175197Y12205D02*
Y21260D01*
X159449Y12205D02*
Y21260D01*
X159055Y11811D02*
X159449Y12205D01*
X167323Y11811D02*
Y21260D01*
X134252Y53150D02*
X159449Y27953D01*
Y21654D02*
Y27953D01*
X130709Y11417D02*
X144488D01*
X148819Y15748D01*
X141732Y13780D02*
X143701Y15748D01*
X133071Y13780D02*
X141732D01*
X130315Y16535D02*
X133071Y13780D01*
X143701Y15748D02*
Y21260D01*
X148819Y15748D02*
Y18504D01*
X151575Y21260D01*
X95669Y38976D02*
X127165D01*
X130315Y35827D01*
Y16535D02*
Y35827D01*
X95669Y42126D02*
X128740D01*
X135433Y35433D01*
Y21654D02*
Y35433D01*
Y21654D02*
X135827Y21260D01*
X151575Y79137D02*
X152362Y78350D01*
Y67716D02*
Y78350D01*
X157244Y93150D02*
Y96055D01*
X79921Y75197D02*
Y92126D01*
Y75197D02*
X80905Y74213D01*
X77756Y66339D02*
Y88228D01*
X65276Y100709D02*
X77756Y88228D01*
X80905Y66339D02*
Y74213D01*
X83858Y66535D02*
X84055Y66339D01*
X84646Y81004D02*
Y85039D01*
X83858Y80216D02*
X84646Y81004D01*
X83858Y66535D02*
Y80216D01*
X159055Y79531D02*
X159449Y79137D01*
X159055Y79531D02*
Y85827D01*
X157480Y87402D02*
X159055Y85827D01*
X152992Y87402D02*
X157480D01*
X147244Y93150D02*
X152992Y87402D01*
X143701Y78743D02*
Y86693D01*
X137244Y93150D02*
X143701Y86693D01*
X11417Y61811D02*
X18504D01*
X9449Y63779D02*
X11417Y61811D01*
X9449Y63779D02*
Y67323D01*
Y72835D01*
X9291Y72992D02*
X9449Y72835D01*
X9291Y72992D02*
Y82677D01*
X9449Y105512D02*
X10039Y106102D01*
X15354D01*
X21260Y97441D02*
X27716Y90984D01*
X21260Y97441D02*
Y100197D01*
X15354Y95276D02*
X17717Y92913D01*
X15354Y95276D02*
Y100197D01*
X9449Y102318D02*
Y105512D01*
X9327Y102196D02*
X9449Y102318D01*
X9327Y98198D02*
Y102196D01*
Y98198D02*
X9449Y98075D01*
Y84409D02*
Y98075D01*
X71260Y55905D02*
X75591Y51575D01*
X71260Y52362D02*
Y55905D01*
X67323Y48425D02*
X71260Y52362D01*
X27716Y90984D02*
X37126Y100394D01*
X37795D01*
X60984Y95709D02*
X74606Y82087D01*
X93701Y75590D02*
X95669Y73622D01*
X74606Y66339D02*
Y82087D01*
X95669Y61024D02*
Y73622D01*
X62992Y48425D02*
X67323D01*
X75591Y51575D02*
X95669D01*
X100787D01*
X102362Y53150D01*
X108268D01*
X60630Y48425D02*
X62992D01*
X58661Y46457D02*
X60630Y48425D01*
X55905Y46457D02*
X58661D01*
X50787D02*
X55905D01*
X108268Y53150D02*
X134252D01*
X159055Y6299D02*
Y11811D01*
X159055Y6299D02*
X159055Y6299D01*
D17*
X118110Y70079D02*
D03*
X183465Y100000D02*
D03*
D18*
X39291Y82677D02*
D03*
D19*
X29291D02*
D03*
X19291D02*
D03*
X9291D02*
D03*
D20*
X107362Y102362D02*
D03*
X190945Y9843D02*
D03*
X137244Y93150D02*
D03*
D21*
X97362Y102362D02*
D03*
X157244Y103150D02*
D03*
Y93150D02*
D03*
X147244Y103150D02*
D03*
Y93150D02*
D03*
X137244Y103150D02*
D03*
D22*
X63779Y79921D02*
D03*
X143701Y69685D02*
D03*
X57087Y12992D02*
D03*
X68110Y19291D02*
D03*
X100787Y9449D02*
D03*
X109055Y8268D02*
D03*
X92913Y9843D02*
D03*
X55118Y29528D02*
D03*
X159449Y69685D02*
D03*
X167323Y69291D02*
D03*
X175197Y68898D02*
D03*
X183071Y68504D02*
D03*
X119685Y4724D02*
D03*
X175197Y12205D02*
D03*
X125984Y9449D02*
D03*
X167323Y11811D02*
D03*
X152362Y67716D02*
D03*
X84646Y85039D02*
D03*
X18504Y61811D02*
D03*
X71260Y55905D02*
D03*
X37795Y100394D02*
D03*
X17717Y92913D02*
D03*
X60984Y95709D02*
D03*
X65276Y100709D02*
D03*
X93701Y75590D02*
D03*
D23*
X135827Y79137D02*
D03*
D24*
X143701Y78743D02*
D03*
X151575Y79137D02*
D03*
X159449D02*
D03*
X167323D02*
D03*
X175197D02*
D03*
X183071D02*
D03*
X190945D02*
D03*
X135827Y21260D02*
D03*
X143701D02*
D03*
X151575D02*
D03*
X159449D02*
D03*
X167323D02*
D03*
X175197D02*
D03*
X183071D02*
D03*
X190945D02*
D03*
D25*
X21260Y106102D02*
D03*
Y100197D02*
D03*
X15354Y106102D02*
D03*
Y100197D02*
D03*
X47244Y65158D02*
D03*
Y59252D02*
D03*
X53150Y65158D02*
D03*
Y59252D02*
D03*
D26*
X95669Y61024D02*
D03*
Y57874D02*
D03*
Y54724D02*
D03*
Y51575D02*
D03*
Y48425D02*
D03*
Y45276D02*
D03*
Y42126D02*
D03*
Y38976D02*
D03*
X62992D02*
D03*
Y42126D02*
D03*
Y45276D02*
D03*
Y48425D02*
D03*
Y51575D02*
D03*
Y54724D02*
D03*
Y57874D02*
D03*
Y61024D02*
D03*
D27*
X90354Y33661D02*
D03*
X87205D02*
D03*
X84055D02*
D03*
X80905D02*
D03*
X77756D02*
D03*
X74606D02*
D03*
X71457D02*
D03*
X68307D02*
D03*
Y66339D02*
D03*
X71457D02*
D03*
X74606D02*
D03*
X77756D02*
D03*
X80905D02*
D03*
X84055D02*
D03*
X87205D02*
D03*
X90354D02*
D03*
D28*
X190945Y9843D02*
Y21260D01*
M02*
