M48
;Layer_Color=9474304
;FILE_FORMAT=2:5
INCH,TZ
;TYPE=PLATED
T1F00S00C0.02800
T2F00S00C0.03150
T3F00S00C0.03543
T4F00S00C0.11811
%
T01
X92913Y9843
X100787Y9449
X109055Y8268
X119685Y4724
X125984Y9449
X167323Y11811
X175197Y12205
X68110Y19291
X57087Y12992
X55118Y29528
X71260Y55905
X63779Y79921
X60984Y95709
X65276Y100709
X37795Y100394
X17717Y92913
X18504Y61811
X84646Y85039
X93701Y75590
X143701Y69685
X152362Y67716
X159449Y69685
X167323Y69291
X175197Y68898
X183071Y68504
T02
X9291Y82677
X19291
X29291
X39291
T03
X190945Y9843
X157244Y93150
Y103150
X147244
Y93150
X137244
Y103150
X107362Y102362
X97362
T04
X118110Y70079
X183465Y100000
M30
