G04 Layer_Color=65535*
%FSLAX25Y25*%
%MOIN*%
G70*
G01*
G75*
%ADD16C,0.01000*%
%ADD29C,0.00984*%
%ADD30C,0.00787*%
%ADD31C,0.00591*%
%ADD32C,0.00800*%
D16*
X102362Y31496D02*
G03*
X102362Y31496I-19685J0D01*
G01*
X4632Y11811D02*
X10630D01*
X7631D01*
Y15810D01*
X4632D01*
X10630D01*
Y18809D02*
Y20808D01*
X9630Y21808D01*
X7631D01*
X6631Y20808D01*
Y18809D01*
X7631Y17809D01*
X9630D01*
X10630Y18809D01*
X6631Y27806D02*
Y24807D01*
X7631Y23807D01*
X9630D01*
X10630Y24807D01*
Y27806D01*
X4632Y29805D02*
X10630D01*
X7631D01*
X6631Y30805D01*
Y32804D01*
X7631Y33804D01*
X10630D01*
Y35803D02*
X6631D01*
Y36803D01*
X7631Y37803D01*
X10630D01*
X7631D01*
X6631Y38802D01*
X7631Y39802D01*
X10630D01*
X6631Y41801D02*
X9630D01*
X10630Y42801D01*
Y45800D01*
X6631D01*
X10630Y50798D02*
Y48799D01*
X9630Y47799D01*
X7631D01*
X6631Y48799D01*
Y50798D01*
X7631Y51798D01*
X8631D01*
Y47799D01*
X10630Y53797D02*
Y55797D01*
Y54797D01*
X4632D01*
Y53797D01*
X10630Y58796D02*
Y60795D01*
Y59795D01*
X4632D01*
Y58796D01*
X10630Y66793D02*
Y64794D01*
X9630Y63794D01*
X7631D01*
X6631Y64794D01*
Y66793D01*
X7631Y67793D01*
X8631D01*
Y63794D01*
X6631Y69792D02*
X10630D01*
X8631D01*
X7631Y70792D01*
X6631Y71792D01*
Y72791D01*
X29789Y105091D02*
X29133Y105747D01*
X27821D01*
X27165Y105091D01*
Y104435D01*
X27821Y103779D01*
X29133D01*
X29789Y103123D01*
Y102467D01*
X29133Y101811D01*
X27821D01*
X27165Y102467D01*
X33725Y105747D02*
X31101D01*
Y101811D01*
X33725D01*
X31101Y103779D02*
X32413D01*
X35037Y101811D02*
Y105747D01*
X37661Y101811D01*
Y105747D01*
X41596Y105091D02*
X40940Y105747D01*
X39628D01*
X38973Y105091D01*
Y104435D01*
X39628Y103779D01*
X40940D01*
X41596Y103123D01*
Y102467D01*
X40940Y101811D01*
X39628D01*
X38973Y102467D01*
X45532Y101811D02*
X42908D01*
X45532Y104435D01*
Y105091D01*
X44876Y105747D01*
X43564D01*
X42908Y105091D01*
X10104Y94225D02*
X9448Y94881D01*
X8136D01*
X7480Y94225D01*
Y93569D01*
X8136Y92913D01*
X9448D01*
X10104Y92257D01*
Y91601D01*
X9448Y90945D01*
X8136D01*
X7480Y91601D01*
X14040Y94881D02*
X11416D01*
Y90945D01*
X14040D01*
X11416Y92913D02*
X12728D01*
X15352Y90945D02*
Y94881D01*
X17976Y90945D01*
Y94881D01*
X21911Y94225D02*
X21255Y94881D01*
X19943D01*
X19287Y94225D01*
Y93569D01*
X19943Y92913D01*
X21255D01*
X21911Y92257D01*
Y91601D01*
X21255Y90945D01*
X19943D01*
X19287Y91601D01*
X23223Y90945D02*
X24535D01*
X23879D01*
Y94881D01*
X23223Y94225D01*
X174409Y111417D02*
Y107482D01*
X172442D01*
X171786Y108138D01*
Y109450D01*
X172442Y110105D01*
X174409D01*
X170474Y111417D02*
X169162D01*
X169818D01*
Y107482D01*
X170474Y108138D01*
X188629Y25859D02*
X187317D01*
X187973D01*
Y22579D01*
X187317Y21923D01*
X186662D01*
X186005Y22579D01*
X189941Y21923D02*
X191253D01*
X190597D01*
Y25859D01*
X189941Y25203D01*
X103805Y64303D02*
X103149Y64959D01*
X101837D01*
X101181Y64303D01*
Y61680D01*
X101837Y61024D01*
X103149D01*
X103805Y61680D01*
X105117Y64303D02*
X105773Y64959D01*
X107085D01*
X107741Y64303D01*
Y63647D01*
X107085Y62991D01*
X106429D01*
X107085D01*
X107741Y62335D01*
Y61680D01*
X107085Y61024D01*
X105773D01*
X105117Y61680D01*
X51443Y54461D02*
X50787Y55117D01*
X49475D01*
X48819Y54461D01*
Y51837D01*
X49475Y51181D01*
X50787D01*
X51443Y51837D01*
X55379Y51181D02*
X52755D01*
X55379Y53805D01*
Y54461D01*
X54722Y55117D01*
X53411D01*
X52755Y54461D01*
X62860Y62335D02*
X62204Y62991D01*
X60892D01*
X60236Y62335D01*
Y59711D01*
X60892Y59055D01*
X62204D01*
X62860Y59711D01*
X64172Y59055D02*
X65484D01*
X64828D01*
Y62991D01*
X64172Y62335D01*
X63647Y9185D02*
X62991Y9841D01*
X61680D01*
X61024Y9185D01*
Y6561D01*
X61680Y5906D01*
X62991D01*
X63647Y6561D01*
X65615Y8529D02*
X66927D01*
X67583Y7873D01*
Y5906D01*
X65615D01*
X64959Y6561D01*
X65615Y7217D01*
X67583D01*
X68895Y4594D02*
Y8529D01*
X70863D01*
X71519Y7873D01*
Y6561D01*
X70863Y5906D01*
X68895D01*
X72831D02*
X74143D01*
X73487D01*
Y9841D01*
X72831Y9185D01*
X103805Y74672D02*
Y77296D01*
X103149Y77952D01*
X101837D01*
X101181Y77296D01*
Y74672D01*
X101837Y74016D01*
X103149D01*
X102493Y75328D02*
X103805Y74016D01*
X103149D02*
X103805Y74672D01*
X105117Y74016D02*
X106429D01*
X105773D01*
Y77952D01*
X105117Y77296D01*
X92520Y112204D02*
Y108268D01*
X94488D01*
X95144Y108924D01*
Y109580D01*
X94488Y110236D01*
X92520D01*
X94488D01*
X95144Y110891D01*
Y111548D01*
X94488Y112204D01*
X92520D01*
X96455D02*
X99079D01*
X97767D01*
Y108268D01*
X100391D02*
X101703D01*
X101047D01*
Y112204D01*
X100391Y111548D01*
D29*
X191437Y17913D02*
G03*
X191437Y17913I-492J0D01*
G01*
X98425Y93701D02*
G03*
X98425Y93701I-492J0D01*
G01*
D30*
X46378Y4331D02*
Y88976D01*
X1102D02*
X3465D01*
X46378D01*
X1496Y4331D02*
X46378D01*
X1102Y4724D02*
X1496Y4331D01*
X1102Y4724D02*
Y88976D01*
X92362Y97362D02*
Y107362D01*
X112362D01*
Y97362D02*
Y107362D01*
X92362Y97362D02*
X112362D01*
X185433Y15354D02*
X196457D01*
X196457Y4331D02*
Y15354D01*
X185433Y4331D02*
X196457D01*
X185433Y4331D02*
Y15354D01*
X143078Y88150D02*
X162244D01*
X132244D02*
X162244D01*
X132244Y108150D02*
X162244D01*
X132244Y88150D02*
Y108150D01*
X162244Y88150D02*
Y108150D01*
X101575Y92520D02*
X105118D01*
Y89370D02*
Y92520D01*
X101575Y80709D02*
X105118D01*
Y83858D01*
X50787Y70748D02*
X88189Y70709D01*
X60039Y106083D02*
X78543D01*
X88189D01*
Y70709D02*
Y106083D01*
X50787Y70748D02*
Y106083D01*
X60039D01*
X62795Y51968D02*
X83071D01*
X62402Y11811D02*
Y51968D01*
X72539Y11877D02*
X92815D01*
X103347Y11811D02*
Y51575D01*
X83071Y51968D02*
X103347D01*
X62402Y11877D02*
X72539D01*
X92815D02*
X102953D01*
D31*
X116811Y102371D02*
X113794D01*
X115302Y100862D02*
Y103879D01*
D32*
X129244Y91150D02*
X130910D01*
X130077D01*
Y96148D01*
X129244Y95315D01*
X130576Y101150D02*
X127244D01*
X130576Y104482D01*
Y105315D01*
X129743Y106148D01*
X128077D01*
X127244Y105315D01*
X166576Y96148D02*
X163244D01*
Y93649D01*
X164910Y94482D01*
X165743D01*
X166576Y93649D01*
Y91983D01*
X165743Y91150D01*
X164077D01*
X163244Y91983D01*
X166576Y106148D02*
X164910Y105315D01*
X163244Y103649D01*
Y101983D01*
X164077Y101150D01*
X165743D01*
X166576Y101983D01*
Y102816D01*
X165743Y103649D01*
X163244D01*
M02*
