G04 Layer_Color=32896*
%FSLAX25Y25*%
%MOIN*%
G70*
G01*
G75*
%ADD16C,0.01000*%
%ADD29C,0.00984*%
%ADD30C,0.00787*%
%ADD50C,0.02362*%
D16*
X131890Y49216D02*
Y77168D01*
Y23625D02*
Y50198D01*
Y23625D02*
X194882D01*
Y77168D01*
X131890D02*
X194882D01*
X195669Y81496D02*
Y85432D01*
X193701D01*
X193045Y84776D01*
Y83464D01*
X193701Y82808D01*
X195669D01*
X194357D02*
X193045Y81496D01*
X189110Y85432D02*
X191734D01*
Y83464D01*
X190422D01*
X191734D01*
Y81496D01*
X187798D02*
X186486D01*
X187142D01*
Y85432D01*
X187798Y84776D01*
X57480Y68898D02*
Y72833D01*
X55512D01*
X54856Y72177D01*
Y70865D01*
X55512Y70210D01*
X57480D01*
X56168D02*
X54856Y68898D01*
X51577D02*
Y72833D01*
X53545Y70865D01*
X50921D01*
X49213Y68898D02*
Y72833D01*
X47245D01*
X46589Y72177D01*
Y70865D01*
X47245Y70210D01*
X49213D01*
X47901D02*
X46589Y68898D01*
X45277Y72177D02*
X44621Y72833D01*
X43309D01*
X42653Y72177D01*
Y71522D01*
X43309Y70865D01*
X43965D01*
X43309D01*
X42653Y70210D01*
Y69554D01*
X43309Y68898D01*
X44621D01*
X45277Y69554D01*
X16535Y92126D02*
Y96062D01*
X14568D01*
X13912Y95406D01*
Y94094D01*
X14568Y93438D01*
X16535D01*
X15224D02*
X13912Y92126D01*
X9976D02*
X12600D01*
X9976Y94750D01*
Y95406D01*
X10632Y96062D01*
X11944D01*
X12600Y95406D01*
X24016Y92520D02*
Y96455D01*
X22048D01*
X21392Y95799D01*
Y94488D01*
X22048Y93832D01*
X24016D01*
X22704D02*
X21392Y92520D01*
X20080D02*
X18768D01*
X19424D01*
Y96455D01*
X20080Y95799D01*
X145801Y13122D02*
X146457Y13778D01*
X147769D01*
X148425Y13122D01*
Y10498D01*
X147769Y9843D01*
X146457D01*
X145801Y10498D01*
X144490Y9843D02*
X143178D01*
X143833D01*
Y13778D01*
X144490Y13122D01*
X141210Y9843D02*
X139898D01*
X140554D01*
Y13778D01*
X141210Y13122D01*
X145801Y7610D02*
X146457Y8266D01*
X147769D01*
X148425Y7610D01*
Y4987D01*
X147769Y4331D01*
X146457D01*
X145801Y4987D01*
X144490Y4331D02*
X143177D01*
X143833D01*
Y8266D01*
X144490Y7610D01*
X141210D02*
X140554Y8266D01*
X139242D01*
X138586Y7610D01*
Y4987D01*
X139242Y4331D01*
X140554D01*
X141210Y4987D01*
Y7610D01*
X56431Y41862D02*
X57087Y42518D01*
X58399D01*
X59055Y41862D01*
Y39239D01*
X58399Y38583D01*
X57087D01*
X56431Y39239D01*
X55119D02*
X54463Y38583D01*
X53152D01*
X52496Y39239D01*
Y41862D01*
X53152Y42518D01*
X54463D01*
X55119Y41862D01*
Y41206D01*
X54463Y40551D01*
X52496D01*
X48557Y41862D02*
X49213Y42518D01*
X50525D01*
X51181Y41862D01*
Y39239D01*
X50525Y38583D01*
X49213D01*
X48557Y39239D01*
X47245Y41862D02*
X46589Y42518D01*
X45278D01*
X44622Y41862D01*
Y41206D01*
X45278Y40551D01*
X44622Y39895D01*
Y39239D01*
X45278Y38583D01*
X46589D01*
X47245Y39239D01*
Y39895D01*
X46589Y40551D01*
X47245Y41206D01*
Y41862D01*
X46589Y40551D02*
X45278D01*
X110368Y59579D02*
X111024Y60235D01*
X112336D01*
X112992Y59579D01*
Y56955D01*
X112336Y56299D01*
X111024D01*
X110368Y56955D01*
X109056Y60235D02*
X106433D01*
Y59579D01*
X109056Y56955D01*
Y56299D01*
X104857Y43044D02*
X105512Y43699D01*
X106824D01*
X107480Y43044D01*
Y40420D01*
X106824Y39764D01*
X105512D01*
X104857Y40420D01*
X100921Y43699D02*
X102233Y43044D01*
X103545Y41732D01*
Y40420D01*
X102889Y39764D01*
X101577D01*
X100921Y40420D01*
Y41076D01*
X101577Y41732D01*
X103545D01*
X25329Y68634D02*
X25985Y69290D01*
X27297D01*
X27953Y68634D01*
Y66010D01*
X27297Y65354D01*
X25985D01*
X25329Y66010D01*
X21393Y69290D02*
X24017D01*
Y67322D01*
X22705Y67978D01*
X22049D01*
X21393Y67322D01*
Y66010D01*
X22049Y65354D01*
X23361D01*
X24017Y66010D01*
X25329Y74146D02*
X25985Y74802D01*
X27297D01*
X27953Y74146D01*
Y71522D01*
X27297Y70866D01*
X25985D01*
X25329Y71522D01*
X22049Y70866D02*
Y74802D01*
X24017Y72834D01*
X21393D01*
X97806Y76459D02*
Y73179D01*
X97149Y72523D01*
X95838D01*
X95182Y73179D01*
Y76459D01*
X93870Y72523D02*
X92558D01*
X93214D01*
Y76459D01*
X93870Y75803D01*
D29*
X96161Y64272D02*
G03*
X96161Y64272I-492J0D01*
G01*
D30*
X19882Y102362D02*
Y103937D01*
X22638Y102362D02*
Y103937D01*
X13976Y102362D02*
Y103937D01*
X16732Y102362D02*
Y103937D01*
X45866Y61417D02*
Y62992D01*
X48622Y61417D02*
Y62992D01*
X51772Y61417D02*
Y62992D01*
X54528Y61417D02*
Y62992D01*
X91339Y37992D02*
Y62008D01*
X67323Y37992D02*
Y62008D01*
X91339D01*
X67323Y37992D02*
X91339D01*
D50*
X88583Y58071D02*
G03*
X88583Y58071I-1181J0D01*
G01*
M02*
