G04 Layer_Color=16711935*
%FSLAX25Y25*%
%MOIN*%
G70*
G01*
G75*
%ADD37R,0.03943X0.03550*%
%ADD38R,0.03550X0.03943*%
%ADD39C,0.20085*%
%ADD40R,0.05124X0.10243*%
%ADD41O,0.05124X0.10243*%
%ADD42R,0.06305X0.06305*%
%ADD43C,0.06305*%
%ADD44C,0.05400*%
%ADD45R,0.05400X0.10400*%
%ADD46O,0.05400X0.10400*%
%ADD47R,0.03943X0.03156*%
%ADD48O,0.05715X0.02565*%
%ADD49O,0.02565X0.05715*%
D37*
X102362Y53150D02*
D03*
Y47638D02*
D03*
X108268Y53150D02*
D03*
Y47638D02*
D03*
X50787Y46457D02*
D03*
Y51968D02*
D03*
X55905Y46457D02*
D03*
Y51968D02*
D03*
D38*
X9449Y72835D02*
D03*
X14961D02*
D03*
X9449Y67323D02*
D03*
X14961D02*
D03*
X159055Y6299D02*
D03*
X153543D02*
D03*
X159055Y11811D02*
D03*
X153543D02*
D03*
D39*
X118110Y70079D02*
D03*
X183465Y100000D02*
D03*
D40*
X39291Y82677D02*
D03*
D41*
X29291D02*
D03*
X19291D02*
D03*
X9291D02*
D03*
D42*
X107362Y102362D02*
D03*
X190945Y9843D02*
D03*
X137244Y93150D02*
D03*
D43*
X97362Y102362D02*
D03*
X157244Y103150D02*
D03*
Y93150D02*
D03*
X147244Y103150D02*
D03*
Y93150D02*
D03*
X137244Y103150D02*
D03*
D44*
X63779Y79921D02*
D03*
X143701Y69685D02*
D03*
X57087Y12992D02*
D03*
X68110Y19291D02*
D03*
X100787Y9449D02*
D03*
X109055Y8268D02*
D03*
X92913Y9843D02*
D03*
X55118Y29528D02*
D03*
X159449Y69685D02*
D03*
X167323Y69291D02*
D03*
X175197Y68898D02*
D03*
X183071Y68504D02*
D03*
X119685Y4724D02*
D03*
X175197Y12205D02*
D03*
X125984Y9449D02*
D03*
X167323Y11811D02*
D03*
X152362Y67716D02*
D03*
X84646Y85039D02*
D03*
X18504Y61811D02*
D03*
X71260Y55905D02*
D03*
X37795Y100394D02*
D03*
X17717Y92913D02*
D03*
X60984Y95709D02*
D03*
X65276Y100709D02*
D03*
X93701Y75590D02*
D03*
D45*
X135827Y79137D02*
D03*
D46*
X143701Y78743D02*
D03*
X151575Y79137D02*
D03*
X159449D02*
D03*
X167323D02*
D03*
X175197D02*
D03*
X183071D02*
D03*
X190945D02*
D03*
X135827Y21260D02*
D03*
X143701D02*
D03*
X151575D02*
D03*
X159449D02*
D03*
X167323D02*
D03*
X175197D02*
D03*
X183071D02*
D03*
X190945D02*
D03*
D47*
X21260Y106102D02*
D03*
Y100197D02*
D03*
X15354Y106102D02*
D03*
Y100197D02*
D03*
X47244Y65158D02*
D03*
Y59252D02*
D03*
X53150Y65158D02*
D03*
Y59252D02*
D03*
D48*
X95669Y61024D02*
D03*
Y57874D02*
D03*
Y54724D02*
D03*
Y51575D02*
D03*
Y48425D02*
D03*
Y45276D02*
D03*
Y42126D02*
D03*
Y38976D02*
D03*
X62992D02*
D03*
Y42126D02*
D03*
Y45276D02*
D03*
Y48425D02*
D03*
Y51575D02*
D03*
Y54724D02*
D03*
Y57874D02*
D03*
Y61024D02*
D03*
D49*
X90354Y33661D02*
D03*
X87205D02*
D03*
X84055D02*
D03*
X80905D02*
D03*
X77756D02*
D03*
X74606D02*
D03*
X71457D02*
D03*
X68307D02*
D03*
Y66339D02*
D03*
X71457D02*
D03*
X74606D02*
D03*
X77756D02*
D03*
X80905D02*
D03*
X84055D02*
D03*
X87205D02*
D03*
X90354D02*
D03*
M02*
