M48
;Layer_Color=9474304
;FILE_FORMAT=2:5
INCH,TZ
;TYPE=PLATED
T1F00S00C0.02800
T2F00S00C0.03150
T3F00S00C0.03543
%
T01
X32000Y8000
X18000Y45000
X32000Y99000
X24000Y129000
X13000Y154000
X73000Y140000
X60000Y123000
X56000Y101000
X55000Y65000
X59000Y46000
X80000Y48000
X53000Y18000
X58000Y175000
X66000Y180000
T02
X86000Y115000
Y125000
Y135000
Y145000
T03
X11000Y16000
X112000Y20000
Y10000
X122000
Y20000
Y30000
X112000
Y40000
X122000
Y50000
X112000
Y60000
X122000
Y70000
X112000
Y80000
X122000
Y90000
X112000
Y100000
X122000
Y110000
X112000
Y120000
X122000
Y130000
X112000
Y140000
X122000
Y150000
X112000
Y160000
X122000
X97000Y50000
X86000Y164000
Y174000
Y184000
Y194000
X112000Y190000
Y180000
Y170000
X122000
Y180000
Y190000
Y200000
X112000
M30
