G04 Layer_Color=16711935*
%FSLAX25Y25*%
%MOIN*%
G70*
G01*
G75*
%ADD33R,0.06305X0.06305*%
%ADD34C,0.06305*%
%ADD35R,0.06305X0.06305*%
%ADD36R,0.10243X0.05124*%
%ADD37O,0.10243X0.05124*%
%ADD38C,0.05400*%
D33*
X11000Y16000D02*
D03*
X97000Y50000D02*
D03*
D34*
X86000Y164000D02*
D03*
Y174000D02*
D03*
Y184000D02*
D03*
X122000Y10000D02*
D03*
X112000D02*
D03*
X122000Y20000D02*
D03*
X112000D02*
D03*
X122000Y30000D02*
D03*
X112000D02*
D03*
X122000Y40000D02*
D03*
X112000D02*
D03*
X122000Y50000D02*
D03*
X112000D02*
D03*
X122000Y60000D02*
D03*
X112000D02*
D03*
X122000Y70000D02*
D03*
X112000D02*
D03*
X122000Y80000D02*
D03*
X112000D02*
D03*
X122000Y90000D02*
D03*
X112000D02*
D03*
X122000Y100000D02*
D03*
X112000D02*
D03*
X122000Y110000D02*
D03*
X112000D02*
D03*
X122000Y120000D02*
D03*
X112000D02*
D03*
X122000Y130000D02*
D03*
X112000D02*
D03*
X122000Y140000D02*
D03*
X112000D02*
D03*
X122000Y150000D02*
D03*
X112000D02*
D03*
X122000Y160000D02*
D03*
X112000D02*
D03*
X122000Y170000D02*
D03*
X112000D02*
D03*
X122000Y180000D02*
D03*
X112000D02*
D03*
X122000Y190000D02*
D03*
X112000D02*
D03*
X122000Y200000D02*
D03*
D35*
X86000Y194000D02*
D03*
X112000Y200000D02*
D03*
D36*
X86000Y115000D02*
D03*
D37*
Y125000D02*
D03*
Y135000D02*
D03*
Y145000D02*
D03*
D38*
X55000Y65000D02*
D03*
X18000Y45000D02*
D03*
X60000Y123000D02*
D03*
X24000Y129000D02*
D03*
X13000Y154000D02*
D03*
X80000Y48000D02*
D03*
X32000Y8000D02*
D03*
X53000Y18000D02*
D03*
X59000Y46000D02*
D03*
X73000Y140000D02*
D03*
X56000Y101000D02*
D03*
X32000Y99000D02*
D03*
X66000Y180000D02*
D03*
X58000Y175000D02*
D03*
M02*
