G04 Layer_Color=32768*
%FSLAX25Y25*%
%MOIN*%
G70*
G01*
G75*
%ADD39C,0.00394*%
D39*
X35276Y10835D02*
Y15165D01*
X44724Y10835D02*
Y15165D01*
X35276D02*
X44724D01*
X35276Y10835D02*
X44724D01*
X38130Y13000D02*
X41870D01*
X40000Y11130D02*
Y14870D01*
X35276Y17835D02*
Y22165D01*
X44724Y17835D02*
Y22165D01*
X35276D02*
X44724D01*
X35276Y17835D02*
X44724D01*
X38130Y20000D02*
X41870D01*
X40000Y18130D02*
Y21870D01*
X99835Y152724D02*
X104165D01*
X99835Y143276D02*
X104165D01*
Y152724D01*
X99835Y143276D02*
Y152724D01*
X102000Y146130D02*
Y149870D01*
X100130Y148000D02*
X103870D01*
X93835Y152724D02*
X98165D01*
X93835Y143276D02*
X98165D01*
Y152724D01*
X93835Y143276D02*
Y152724D01*
X96000Y146130D02*
Y149870D01*
X94130Y148000D02*
X97870D01*
X62835Y202724D02*
X67165D01*
X62835Y193276D02*
X67165D01*
Y202724D01*
X62835Y193276D02*
Y202724D01*
X65000Y196130D02*
Y199870D01*
X63130Y198000D02*
X66870D01*
X56835Y202724D02*
X61165D01*
X56835Y193276D02*
X61165D01*
Y202724D01*
X56835Y193276D02*
Y202724D01*
X59000Y196130D02*
Y199870D01*
X57130Y198000D02*
X60870D01*
M02*
