G04 Layer_Physical_Order=10*
G04 Layer_Color=16711680*
%FSLAX25Y25*%
%MOIN*%
G70*
G01*
G75*
%ADD16C,0.01000*%
%ADD18R,0.05905X0.05905*%
%ADD19C,0.05905*%
%ADD20R,0.05905X0.05905*%
%ADD21R,0.09842X0.04724*%
%ADD22O,0.09842X0.04724*%
%ADD23C,0.05000*%
G36*
X131000Y0D02*
X0D01*
Y211000D01*
X131000D01*
Y0D01*
D02*
G37*
%LPC*%
G36*
X54500Y64500D02*
X51536D01*
X51590Y64086D01*
X51943Y63235D01*
X52504Y62504D01*
X53235Y61943D01*
X54086Y61590D01*
X54500Y61536D01*
Y64500D01*
D02*
G37*
G36*
X122500Y63921D02*
Y60500D01*
X125921D01*
X125851Y61032D01*
X125453Y61993D01*
X124819Y62819D01*
X123993Y63453D01*
X123032Y63851D01*
X122500Y63921D01*
D02*
G37*
G36*
X58464Y64500D02*
X55500D01*
Y61536D01*
X55914Y61590D01*
X56765Y61943D01*
X57496Y62504D01*
X58057Y63235D01*
X58410Y64086D01*
X58464Y64500D01*
D02*
G37*
G36*
X55500Y68464D02*
Y65500D01*
X58464D01*
X58410Y65914D01*
X58057Y66765D01*
X57496Y67496D01*
X56765Y68057D01*
X55914Y68410D01*
X55500Y68464D01*
D02*
G37*
G36*
X54500D02*
X54086Y68410D01*
X53235Y68057D01*
X52504Y67496D01*
X51943Y66765D01*
X51590Y65914D01*
X51536Y65500D01*
X54500D01*
Y68464D01*
D02*
G37*
G36*
X112000Y63987D02*
X110968Y63851D01*
X110007Y63453D01*
X109181Y62819D01*
X108547Y61993D01*
X108149Y61032D01*
X108013Y60000D01*
X108149Y58968D01*
X108547Y58007D01*
X109181Y57181D01*
X110007Y56547D01*
X110968Y56149D01*
X112000Y56013D01*
X113032Y56149D01*
X113993Y56547D01*
X114819Y57181D01*
X115453Y58007D01*
X115851Y58968D01*
X115987Y60000D01*
X115851Y61032D01*
X115453Y61993D01*
X114819Y62819D01*
X113993Y63453D01*
X113032Y63851D01*
X112000Y63987D01*
D02*
G37*
G36*
X99953Y53972D02*
X94047D01*
X93657Y53895D01*
X93326Y53674D01*
X93105Y53343D01*
X93028Y52953D01*
Y47047D01*
X93105Y46657D01*
X93326Y46326D01*
X93657Y46105D01*
X94047Y46028D01*
X99953D01*
X100343Y46105D01*
X100674Y46326D01*
X100895Y46657D01*
X100972Y47047D01*
Y52953D01*
X100895Y53343D01*
X100674Y53674D01*
X100343Y53895D01*
X99953Y53972D01*
D02*
G37*
G36*
X121500Y59500D02*
X118079D01*
X118149Y58968D01*
X118547Y58007D01*
X119181Y57181D01*
X120007Y56547D01*
X120968Y56149D01*
X121500Y56079D01*
Y59500D01*
D02*
G37*
G36*
Y63921D02*
X120968Y63851D01*
X120007Y63453D01*
X119181Y62819D01*
X118547Y61993D01*
X118149Y61032D01*
X118079Y60500D01*
X121500D01*
Y63921D01*
D02*
G37*
G36*
X125921Y59500D02*
X122500D01*
Y56079D01*
X123032Y56149D01*
X123993Y56547D01*
X124819Y57181D01*
X125453Y58007D01*
X125851Y58968D01*
X125921Y59500D01*
D02*
G37*
G36*
X112500Y83921D02*
Y80500D01*
X115921D01*
X115851Y81032D01*
X115453Y81993D01*
X114819Y82819D01*
X113993Y83453D01*
X113032Y83851D01*
X112500Y83921D01*
D02*
G37*
G36*
X111500D02*
X110968Y83851D01*
X110007Y83453D01*
X109181Y82819D01*
X108547Y81993D01*
X108149Y81032D01*
X108079Y80500D01*
X111500D01*
Y83921D01*
D02*
G37*
G36*
X112000Y93987D02*
X110968Y93851D01*
X110007Y93453D01*
X109181Y92819D01*
X108547Y91993D01*
X108149Y91032D01*
X108013Y90000D01*
X108149Y88968D01*
X108547Y88007D01*
X109181Y87181D01*
X110007Y86547D01*
X110968Y86149D01*
X112000Y86013D01*
X113032Y86149D01*
X113993Y86547D01*
X114819Y87181D01*
X115453Y88007D01*
X115851Y88968D01*
X115987Y90000D01*
X115851Y91032D01*
X115453Y91993D01*
X114819Y92819D01*
X113993Y93453D01*
X113032Y93851D01*
X112000Y93987D01*
D02*
G37*
G36*
X122000Y103987D02*
X120968Y103851D01*
X120007Y103453D01*
X119181Y102819D01*
X118547Y101993D01*
X118149Y101032D01*
X118013Y100000D01*
X118149Y98968D01*
X118547Y98007D01*
X119181Y97181D01*
X120007Y96547D01*
X120968Y96149D01*
X122000Y96013D01*
X123032Y96149D01*
X123993Y96547D01*
X124819Y97181D01*
X125453Y98007D01*
X125851Y98968D01*
X125987Y100000D01*
X125851Y101032D01*
X125453Y101993D01*
X124819Y102819D01*
X123993Y103453D01*
X123032Y103851D01*
X122000Y103987D01*
D02*
G37*
G36*
Y93987D02*
X120968Y93851D01*
X120007Y93453D01*
X119181Y92819D01*
X118547Y91993D01*
X118149Y91032D01*
X118013Y90000D01*
X118149Y88968D01*
X118547Y88007D01*
X119181Y87181D01*
X120007Y86547D01*
X120968Y86149D01*
X122000Y86013D01*
X123032Y86149D01*
X123993Y86547D01*
X124819Y87181D01*
X125453Y88007D01*
X125851Y88968D01*
X125987Y90000D01*
X125851Y91032D01*
X125453Y91993D01*
X124819Y92819D01*
X123993Y93453D01*
X123032Y93851D01*
X122000Y93987D01*
D02*
G37*
G36*
Y73987D02*
X120968Y73851D01*
X120007Y73453D01*
X119181Y72819D01*
X118547Y71993D01*
X118149Y71032D01*
X118013Y70000D01*
X118149Y68968D01*
X118547Y68007D01*
X119181Y67181D01*
X120007Y66547D01*
X120968Y66149D01*
X122000Y66013D01*
X123032Y66149D01*
X123993Y66547D01*
X124819Y67181D01*
X125453Y68007D01*
X125851Y68968D01*
X125987Y70000D01*
X125851Y71032D01*
X125453Y71993D01*
X124819Y72819D01*
X123993Y73453D01*
X123032Y73851D01*
X122000Y73987D01*
D02*
G37*
G36*
X112000D02*
X110968Y73851D01*
X110007Y73453D01*
X109181Y72819D01*
X108547Y71993D01*
X108149Y71032D01*
X108013Y70000D01*
X108149Y68968D01*
X108547Y68007D01*
X109181Y67181D01*
X110007Y66547D01*
X110968Y66149D01*
X112000Y66013D01*
X113032Y66149D01*
X113993Y66547D01*
X114819Y67181D01*
X115453Y68007D01*
X115851Y68968D01*
X115987Y70000D01*
X115851Y71032D01*
X115453Y71993D01*
X114819Y72819D01*
X113993Y73453D01*
X113032Y73851D01*
X112000Y73987D01*
D02*
G37*
G36*
X122000Y83987D02*
X120968Y83851D01*
X120007Y83453D01*
X119181Y82819D01*
X118547Y81993D01*
X118149Y81032D01*
X118013Y80000D01*
X118149Y78968D01*
X118547Y78007D01*
X119181Y77181D01*
X120007Y76547D01*
X120968Y76149D01*
X122000Y76013D01*
X123032Y76149D01*
X123993Y76547D01*
X124819Y77181D01*
X125453Y78007D01*
X125851Y78968D01*
X125987Y80000D01*
X125851Y81032D01*
X125453Y81993D01*
X124819Y82819D01*
X123993Y83453D01*
X123032Y83851D01*
X122000Y83987D01*
D02*
G37*
G36*
X115921Y79500D02*
X112500D01*
Y76079D01*
X113032Y76149D01*
X113993Y76547D01*
X114819Y77181D01*
X115453Y78007D01*
X115851Y78968D01*
X115921Y79500D01*
D02*
G37*
G36*
X111500D02*
X108079D01*
X108149Y78968D01*
X108547Y78007D01*
X109181Y77181D01*
X110007Y76547D01*
X110968Y76149D01*
X111500Y76079D01*
Y79500D01*
D02*
G37*
G36*
X122000Y53987D02*
X120968Y53851D01*
X120007Y53453D01*
X119181Y52819D01*
X118547Y51993D01*
X118149Y51032D01*
X118013Y50000D01*
X118149Y48968D01*
X118547Y48007D01*
X119181Y47181D01*
X120007Y46547D01*
X120968Y46149D01*
X122000Y46013D01*
X123032Y46149D01*
X123993Y46547D01*
X124819Y47181D01*
X125453Y48007D01*
X125851Y48968D01*
X125987Y50000D01*
X125851Y51032D01*
X125453Y51993D01*
X124819Y52819D01*
X123993Y53453D01*
X123032Y53851D01*
X122000Y53987D01*
D02*
G37*
G36*
X112000Y23987D02*
X110968Y23851D01*
X110007Y23453D01*
X109181Y22819D01*
X108547Y21993D01*
X108149Y21032D01*
X108013Y20000D01*
X108149Y18968D01*
X108547Y18007D01*
X109181Y17181D01*
X110007Y16547D01*
X110968Y16149D01*
X112000Y16013D01*
X113032Y16149D01*
X113993Y16547D01*
X114819Y17181D01*
X115453Y18007D01*
X115851Y18968D01*
X115987Y20000D01*
X115851Y21032D01*
X115453Y21993D01*
X114819Y22819D01*
X113993Y23453D01*
X113032Y23851D01*
X112000Y23987D01*
D02*
G37*
G36*
X13953Y19972D02*
X8047D01*
X7657Y19895D01*
X7326Y19674D01*
X7105Y19343D01*
X7028Y18953D01*
Y13047D01*
X7105Y12657D01*
X7326Y12326D01*
X7657Y12105D01*
X8047Y12028D01*
X13953D01*
X14343Y12105D01*
X14674Y12326D01*
X14895Y12657D01*
X14972Y13047D01*
Y18953D01*
X14895Y19343D01*
X14674Y19674D01*
X14343Y19895D01*
X13953Y19972D01*
D02*
G37*
G36*
X122000Y23987D02*
X120968Y23851D01*
X120007Y23453D01*
X119181Y22819D01*
X118547Y21993D01*
X118149Y21032D01*
X118013Y20000D01*
X118149Y18968D01*
X118547Y18007D01*
X119181Y17181D01*
X120007Y16547D01*
X120968Y16149D01*
X122000Y16013D01*
X123032Y16149D01*
X123993Y16547D01*
X124819Y17181D01*
X125453Y18007D01*
X125851Y18968D01*
X125987Y20000D01*
X125851Y21032D01*
X125453Y21993D01*
X124819Y22819D01*
X123993Y23453D01*
X123032Y23851D01*
X122000Y23987D01*
D02*
G37*
G36*
Y33987D02*
X120968Y33851D01*
X120007Y33453D01*
X119181Y32819D01*
X118547Y31993D01*
X118149Y31032D01*
X118013Y30000D01*
X118149Y28968D01*
X118547Y28007D01*
X119181Y27181D01*
X120007Y26547D01*
X120968Y26149D01*
X122000Y26013D01*
X123032Y26149D01*
X123993Y26547D01*
X124819Y27181D01*
X125453Y28007D01*
X125851Y28968D01*
X125987Y30000D01*
X125851Y31032D01*
X125453Y31993D01*
X124819Y32819D01*
X123993Y33453D01*
X123032Y33851D01*
X122000Y33987D01*
D02*
G37*
G36*
X112000D02*
X110968Y33851D01*
X110007Y33453D01*
X109181Y32819D01*
X108547Y31993D01*
X108149Y31032D01*
X108013Y30000D01*
X108149Y28968D01*
X108547Y28007D01*
X109181Y27181D01*
X110007Y26547D01*
X110968Y26149D01*
X112000Y26013D01*
X113032Y26149D01*
X113993Y26547D01*
X114819Y27181D01*
X115453Y28007D01*
X115851Y28968D01*
X115987Y30000D01*
X115851Y31032D01*
X115453Y31993D01*
X114819Y32819D01*
X113993Y33453D01*
X113032Y33851D01*
X112000Y33987D01*
D02*
G37*
G36*
X111500Y9500D02*
X108079D01*
X108149Y8968D01*
X108547Y8007D01*
X109181Y7181D01*
X110007Y6547D01*
X110968Y6149D01*
X111500Y6079D01*
Y9500D01*
D02*
G37*
G36*
X122000Y13987D02*
X120968Y13851D01*
X120007Y13453D01*
X119181Y12819D01*
X118547Y11993D01*
X118149Y11032D01*
X118013Y10000D01*
X118149Y8968D01*
X118547Y8007D01*
X119181Y7181D01*
X120007Y6547D01*
X120968Y6149D01*
X122000Y6013D01*
X123032Y6149D01*
X123993Y6547D01*
X124819Y7181D01*
X125453Y8007D01*
X125851Y8968D01*
X125987Y10000D01*
X125851Y11032D01*
X125453Y11993D01*
X124819Y12819D01*
X123993Y13453D01*
X123032Y13851D01*
X122000Y13987D01*
D02*
G37*
G36*
X115921Y9500D02*
X112500D01*
Y6079D01*
X113032Y6149D01*
X113993Y6547D01*
X114819Y7181D01*
X115453Y8007D01*
X115851Y8968D01*
X115921Y9500D01*
D02*
G37*
G36*
X112500Y13921D02*
Y10500D01*
X115921D01*
X115851Y11032D01*
X115453Y11993D01*
X114819Y12819D01*
X113993Y13453D01*
X113032Y13851D01*
X112500Y13921D01*
D02*
G37*
G36*
X111500D02*
X110968Y13851D01*
X110007Y13453D01*
X109181Y12819D01*
X108547Y11993D01*
X108149Y11032D01*
X108079Y10500D01*
X111500D01*
Y13921D01*
D02*
G37*
G36*
X21464Y44500D02*
X18500D01*
Y41536D01*
X18914Y41590D01*
X19765Y41943D01*
X20496Y42504D01*
X21057Y43235D01*
X21410Y44086D01*
X21464Y44500D01*
D02*
G37*
G36*
X17500D02*
X14536D01*
X14590Y44086D01*
X14943Y43235D01*
X15504Y42504D01*
X16235Y41943D01*
X17086Y41590D01*
X17500Y41536D01*
Y44500D01*
D02*
G37*
G36*
Y48464D02*
X17086Y48410D01*
X16235Y48057D01*
X15504Y47496D01*
X14943Y46765D01*
X14590Y45914D01*
X14536Y45500D01*
X17500D01*
Y48464D01*
D02*
G37*
G36*
X112000Y53987D02*
X110968Y53851D01*
X110007Y53453D01*
X109181Y52819D01*
X108547Y51993D01*
X108149Y51032D01*
X108013Y50000D01*
X108149Y48968D01*
X108547Y48007D01*
X109181Y47181D01*
X110007Y46547D01*
X110968Y46149D01*
X112000Y46013D01*
X113032Y46149D01*
X113993Y46547D01*
X114819Y47181D01*
X115453Y48007D01*
X115851Y48968D01*
X115987Y50000D01*
X115851Y51032D01*
X115453Y51993D01*
X114819Y52819D01*
X113993Y53453D01*
X113032Y53851D01*
X112000Y53987D01*
D02*
G37*
G36*
X18500Y48464D02*
Y45500D01*
X21464D01*
X21410Y45914D01*
X21057Y46765D01*
X20496Y47496D01*
X19765Y48057D01*
X18914Y48410D01*
X18500Y48464D01*
D02*
G37*
G36*
X121500Y39500D02*
X118079D01*
X118149Y38968D01*
X118547Y38007D01*
X119181Y37181D01*
X120007Y36547D01*
X120968Y36149D01*
X121500Y36079D01*
Y39500D01*
D02*
G37*
G36*
X112000Y43987D02*
X110968Y43851D01*
X110007Y43453D01*
X109181Y42819D01*
X108547Y41993D01*
X108149Y41032D01*
X108013Y40000D01*
X108149Y38968D01*
X108547Y38007D01*
X109181Y37181D01*
X110007Y36547D01*
X110968Y36149D01*
X112000Y36013D01*
X113032Y36149D01*
X113993Y36547D01*
X114819Y37181D01*
X115453Y38007D01*
X115851Y38968D01*
X115987Y40000D01*
X115851Y41032D01*
X115453Y41993D01*
X114819Y42819D01*
X113993Y43453D01*
X113032Y43851D01*
X112000Y43987D01*
D02*
G37*
G36*
X125921Y39500D02*
X122500D01*
Y36079D01*
X123032Y36149D01*
X123993Y36547D01*
X124819Y37181D01*
X125453Y38007D01*
X125851Y38968D01*
X125921Y39500D01*
D02*
G37*
G36*
X122500Y43921D02*
Y40500D01*
X125921D01*
X125851Y41032D01*
X125453Y41993D01*
X124819Y42819D01*
X123993Y43453D01*
X123032Y43851D01*
X122500Y43921D01*
D02*
G37*
G36*
X121500D02*
X120968Y43851D01*
X120007Y43453D01*
X119181Y42819D01*
X118547Y41993D01*
X118149Y41032D01*
X118079Y40500D01*
X121500D01*
Y43921D01*
D02*
G37*
G36*
X56000Y104530D02*
X55086Y104410D01*
X54235Y104057D01*
X53504Y103496D01*
X52943Y102765D01*
X52590Y101914D01*
X52470Y101000D01*
X52482Y100905D01*
X52153Y100529D01*
X35155D01*
X35057Y100765D01*
X34496Y101496D01*
X33765Y102057D01*
X32914Y102410D01*
X32000Y102530D01*
X31086Y102410D01*
X30235Y102057D01*
X29504Y101496D01*
X28943Y100765D01*
X28590Y99914D01*
X28470Y99000D01*
X28590Y98086D01*
X28943Y97235D01*
X29504Y96504D01*
X30235Y95943D01*
X31086Y95590D01*
X32000Y95470D01*
X32914Y95590D01*
X33765Y95943D01*
X34496Y96504D01*
X35057Y97235D01*
X35155Y97471D01*
X54000D01*
X54585Y97587D01*
X54780Y97717D01*
X55086Y97590D01*
X56000Y97470D01*
X56914Y97590D01*
X57765Y97943D01*
X58496Y98504D01*
X59057Y99235D01*
X59410Y100086D01*
X59530Y101000D01*
X59410Y101914D01*
X59057Y102765D01*
X58496Y103496D01*
X57765Y104057D01*
X56914Y104410D01*
X56000Y104530D01*
D02*
G37*
G36*
X115921Y159500D02*
X112500D01*
Y156079D01*
X113032Y156149D01*
X113993Y156547D01*
X114819Y157181D01*
X115453Y158007D01*
X115851Y158968D01*
X115921Y159500D01*
D02*
G37*
G36*
X111500D02*
X108079D01*
X108149Y158968D01*
X108547Y158007D01*
X109181Y157181D01*
X110007Y156547D01*
X110968Y156149D01*
X111500Y156079D01*
Y159500D01*
D02*
G37*
G36*
X85500Y163500D02*
X82079D01*
X82149Y162968D01*
X82547Y162007D01*
X83181Y161181D01*
X84007Y160547D01*
X84968Y160149D01*
X85500Y160079D01*
Y163500D01*
D02*
G37*
G36*
Y167921D02*
X84968Y167851D01*
X84007Y167453D01*
X83181Y166819D01*
X82547Y165993D01*
X82149Y165032D01*
X82079Y164500D01*
X85500D01*
Y167921D01*
D02*
G37*
G36*
X89921Y163500D02*
X86500D01*
Y160079D01*
X87032Y160149D01*
X87993Y160547D01*
X88819Y161181D01*
X89453Y162007D01*
X89851Y162968D01*
X89921Y163500D01*
D02*
G37*
G36*
X12500Y153500D02*
X9536D01*
X9590Y153086D01*
X9943Y152235D01*
X10504Y151504D01*
X11235Y150943D01*
X12086Y150590D01*
X12500Y150536D01*
Y153500D01*
D02*
G37*
G36*
X122000Y153987D02*
X120968Y153851D01*
X120007Y153453D01*
X119181Y152819D01*
X118547Y151993D01*
X118149Y151032D01*
X118013Y150000D01*
X118149Y148968D01*
X118547Y148007D01*
X119181Y147181D01*
X120007Y146547D01*
X120968Y146149D01*
X122000Y146013D01*
X123032Y146149D01*
X123993Y146547D01*
X124819Y147181D01*
X125453Y148007D01*
X125851Y148968D01*
X125987Y150000D01*
X125851Y151032D01*
X125453Y151993D01*
X124819Y152819D01*
X123993Y153453D01*
X123032Y153851D01*
X122000Y153987D01*
D02*
G37*
G36*
X16464Y153500D02*
X13500D01*
Y150536D01*
X13914Y150590D01*
X14765Y150943D01*
X15496Y151504D01*
X16057Y152235D01*
X16410Y153086D01*
X16464Y153500D01*
D02*
G37*
G36*
X13500Y157464D02*
Y154500D01*
X16464D01*
X16410Y154914D01*
X16057Y155765D01*
X15496Y156496D01*
X14765Y157057D01*
X13914Y157410D01*
X13500Y157464D01*
D02*
G37*
G36*
X12500D02*
X12086Y157410D01*
X11235Y157057D01*
X10504Y156496D01*
X9943Y155765D01*
X9590Y154914D01*
X9536Y154500D01*
X12500D01*
Y157464D01*
D02*
G37*
G36*
X86500Y167921D02*
Y164500D01*
X89921D01*
X89851Y165032D01*
X89453Y165993D01*
X88819Y166819D01*
X87993Y167453D01*
X87032Y167851D01*
X86500Y167921D01*
D02*
G37*
G36*
X122000Y193987D02*
X120968Y193851D01*
X120007Y193453D01*
X119181Y192819D01*
X118547Y191993D01*
X118149Y191032D01*
X118013Y190000D01*
X118149Y188968D01*
X118547Y188007D01*
X119181Y187181D01*
X120007Y186547D01*
X120968Y186149D01*
X122000Y186013D01*
X123032Y186149D01*
X123993Y186547D01*
X124819Y187181D01*
X125453Y188007D01*
X125851Y188968D01*
X125987Y190000D01*
X125851Y191032D01*
X125453Y191993D01*
X124819Y192819D01*
X123993Y193453D01*
X123032Y193851D01*
X122000Y193987D01*
D02*
G37*
G36*
X112000D02*
X110968Y193851D01*
X110007Y193453D01*
X109181Y192819D01*
X108547Y191993D01*
X108149Y191032D01*
X108013Y190000D01*
X108149Y188968D01*
X108547Y188007D01*
X109181Y187181D01*
X110007Y186547D01*
X110968Y186149D01*
X112000Y186013D01*
X113032Y186149D01*
X113993Y186547D01*
X114819Y187181D01*
X115453Y188007D01*
X115851Y188968D01*
X115987Y190000D01*
X115851Y191032D01*
X115453Y191993D01*
X114819Y192819D01*
X113993Y193453D01*
X113032Y193851D01*
X112000Y193987D01*
D02*
G37*
G36*
X88953Y197972D02*
X83047D01*
X82657Y197895D01*
X82326Y197674D01*
X82105Y197343D01*
X82028Y196953D01*
Y195529D01*
X81000D01*
X80415Y195413D01*
X79919Y195081D01*
X74919Y190081D01*
X74587Y189585D01*
X74471Y189000D01*
Y148000D01*
X74587Y147415D01*
X74919Y146919D01*
X77919Y143919D01*
X78415Y143587D01*
X79000Y143471D01*
X80435D01*
X80504Y143304D01*
X81043Y142602D01*
X81745Y142063D01*
X81827Y142029D01*
X81727Y141529D01*
X76155D01*
X76057Y141765D01*
X75496Y142496D01*
X74765Y143057D01*
X73914Y143410D01*
X73000Y143530D01*
X72086Y143410D01*
X71235Y143057D01*
X70504Y142496D01*
X69943Y141765D01*
X69590Y140914D01*
X69470Y140000D01*
X69590Y139086D01*
X69943Y138235D01*
X70504Y137504D01*
X71122Y137029D01*
X70993Y136529D01*
X69634D01*
X67529Y138634D01*
Y176845D01*
X67765Y176943D01*
X68496Y177504D01*
X69057Y178235D01*
X69410Y179086D01*
X69530Y180000D01*
X69410Y180914D01*
X69057Y181765D01*
X68496Y182496D01*
X67765Y183057D01*
X66914Y183410D01*
X66000Y183530D01*
X65086Y183410D01*
X64235Y183057D01*
X63504Y182496D01*
X62943Y181765D01*
X62590Y180914D01*
X62470Y180000D01*
X62590Y179086D01*
X62943Y178235D01*
X63504Y177504D01*
X64235Y176943D01*
X64471Y176845D01*
Y138000D01*
X64587Y137415D01*
X64919Y136919D01*
X67919Y133919D01*
X68415Y133587D01*
X69000Y133471D01*
X80435D01*
X80504Y133304D01*
X81043Y132602D01*
X81745Y132063D01*
X82563Y131724D01*
X83441Y131609D01*
X88559D01*
X89437Y131724D01*
X90255Y132063D01*
X90957Y132602D01*
X91496Y133304D01*
X91835Y134122D01*
X91950Y135000D01*
X91835Y135878D01*
X91496Y136696D01*
X90957Y137398D01*
X90255Y137937D01*
X90173Y137971D01*
X90273Y138471D01*
X98000D01*
X98585Y138587D01*
X99081Y138919D01*
X108090Y147927D01*
X108690Y147820D01*
X109181Y147181D01*
X110007Y146547D01*
X110968Y146149D01*
X112000Y146013D01*
X113032Y146149D01*
X113993Y146547D01*
X114819Y147181D01*
X115453Y148007D01*
X115851Y148968D01*
X115987Y150000D01*
X115851Y151032D01*
X115453Y151993D01*
X114819Y152819D01*
X113993Y153453D01*
X113032Y153851D01*
X112000Y153987D01*
X110968Y153851D01*
X110007Y153453D01*
X109181Y152819D01*
X108547Y151993D01*
X108355Y151529D01*
X108000D01*
X107415Y151413D01*
X106919Y151081D01*
X97366Y141529D01*
X90273D01*
X90173Y142029D01*
X90255Y142063D01*
X90957Y142602D01*
X91496Y143304D01*
X91835Y144122D01*
X91950Y145000D01*
X91835Y145878D01*
X91496Y146696D01*
X90957Y147398D01*
X90255Y147937D01*
X89437Y148276D01*
X88559Y148391D01*
X83441D01*
X82563Y148276D01*
X81745Y147937D01*
X81043Y147398D01*
X80504Y146696D01*
X80435Y146529D01*
X79633D01*
X77529Y148634D01*
Y188366D01*
X81528Y192365D01*
X82028Y192215D01*
Y191047D01*
X82105Y190657D01*
X82326Y190326D01*
X82657Y190105D01*
X83047Y190028D01*
X88953D01*
X89343Y190105D01*
X89674Y190326D01*
X89895Y190657D01*
X89972Y191047D01*
Y196953D01*
X89895Y197343D01*
X89674Y197674D01*
X89343Y197895D01*
X88953Y197972D01*
D02*
G37*
G36*
X114953Y203972D02*
X109047D01*
X108657Y203895D01*
X108326Y203674D01*
X108105Y203343D01*
X108028Y202953D01*
Y197047D01*
X108105Y196657D01*
X108326Y196326D01*
X108657Y196105D01*
X109047Y196028D01*
X114953D01*
X115343Y196105D01*
X115674Y196326D01*
X115895Y196657D01*
X115972Y197047D01*
Y202953D01*
X115895Y203343D01*
X115674Y203674D01*
X115343Y203895D01*
X114953Y203972D01*
D02*
G37*
G36*
X122000Y203987D02*
X120968Y203851D01*
X120007Y203453D01*
X119181Y202819D01*
X118547Y201993D01*
X118149Y201032D01*
X118013Y200000D01*
X118149Y198968D01*
X118547Y198007D01*
X119181Y197181D01*
X120007Y196547D01*
X120968Y196149D01*
X122000Y196013D01*
X123032Y196149D01*
X123993Y196547D01*
X124819Y197181D01*
X125453Y198007D01*
X125851Y198968D01*
X125987Y200000D01*
X125851Y201032D01*
X125453Y201993D01*
X124819Y202819D01*
X123993Y203453D01*
X123032Y203851D01*
X122000Y203987D01*
D02*
G37*
G36*
X121500Y179500D02*
X118079D01*
X118149Y178968D01*
X118547Y178007D01*
X119181Y177181D01*
X120007Y176547D01*
X120968Y176149D01*
X121500Y176079D01*
Y179500D01*
D02*
G37*
G36*
X86000Y187987D02*
X84968Y187851D01*
X84007Y187453D01*
X83181Y186819D01*
X82547Y185993D01*
X82149Y185032D01*
X82013Y184000D01*
X82149Y182968D01*
X82547Y182007D01*
X83181Y181181D01*
X84007Y180547D01*
X84968Y180149D01*
X86000Y180013D01*
X87032Y180149D01*
X87993Y180547D01*
X88819Y181181D01*
X89453Y182007D01*
X89645Y182471D01*
X93366D01*
X101919Y173919D01*
X102415Y173587D01*
X103000Y173471D01*
X109209D01*
X109378Y172971D01*
X109181Y172819D01*
X108547Y171993D01*
X108149Y171032D01*
X108013Y170000D01*
X108149Y168968D01*
X108547Y168007D01*
X109181Y167181D01*
X109378Y167029D01*
X109209Y166529D01*
X95634D01*
X89659Y172504D01*
X89851Y172968D01*
X89987Y174000D01*
X89851Y175032D01*
X89453Y175993D01*
X88819Y176819D01*
X87993Y177453D01*
X87032Y177851D01*
X86000Y177987D01*
X84968Y177851D01*
X84007Y177453D01*
X83181Y176819D01*
X82547Y175993D01*
X82149Y175032D01*
X82013Y174000D01*
X82149Y172968D01*
X82547Y172007D01*
X83181Y171181D01*
X84007Y170547D01*
X84968Y170149D01*
X86000Y170013D01*
X87032Y170149D01*
X87496Y170341D01*
X93919Y163919D01*
X94415Y163587D01*
X95000Y163471D01*
X109209D01*
X109378Y162971D01*
X109181Y162819D01*
X108547Y161993D01*
X108149Y161032D01*
X108079Y160500D01*
X112000D01*
X115921D01*
X115851Y161032D01*
X115453Y161993D01*
X114819Y162819D01*
X114622Y162971D01*
X114792Y163471D01*
X115366D01*
X118109Y160728D01*
X118013Y160000D01*
X118149Y158968D01*
X118547Y158007D01*
X119181Y157181D01*
X120007Y156547D01*
X120968Y156149D01*
X122000Y156013D01*
X123032Y156149D01*
X123993Y156547D01*
X124819Y157181D01*
X125453Y158007D01*
X125851Y158968D01*
X125987Y160000D01*
X125851Y161032D01*
X125453Y161993D01*
X124819Y162819D01*
X123993Y163453D01*
X123032Y163851D01*
X122000Y163987D01*
X120968Y163851D01*
X120007Y163453D01*
X119839Y163324D01*
X117081Y166081D01*
X116585Y166413D01*
X116000Y166529D01*
X114792D01*
X114622Y167029D01*
X114819Y167181D01*
X115453Y168007D01*
X115851Y168968D01*
X115987Y170000D01*
X115851Y171032D01*
X115453Y171993D01*
X114819Y172819D01*
X114622Y172971D01*
X114792Y173471D01*
X116367D01*
X118341Y171496D01*
X118149Y171032D01*
X118013Y170000D01*
X118149Y168968D01*
X118547Y168007D01*
X119181Y167181D01*
X120007Y166547D01*
X120968Y166149D01*
X122000Y166013D01*
X123032Y166149D01*
X123993Y166547D01*
X124819Y167181D01*
X125453Y168007D01*
X125851Y168968D01*
X125987Y170000D01*
X125851Y171032D01*
X125453Y171993D01*
X124819Y172819D01*
X123993Y173453D01*
X123032Y173851D01*
X122000Y173987D01*
X120968Y173851D01*
X120504Y173659D01*
X118081Y176081D01*
X117585Y176413D01*
X117000Y176529D01*
X114792D01*
X114622Y177029D01*
X114819Y177181D01*
X115453Y178007D01*
X115851Y178968D01*
X115987Y180000D01*
X115851Y181032D01*
X115453Y181993D01*
X114819Y182819D01*
X113993Y183453D01*
X113032Y183851D01*
X112000Y183987D01*
X110968Y183851D01*
X110007Y183453D01*
X109181Y182819D01*
X108547Y181993D01*
X108149Y181032D01*
X108013Y180000D01*
X108149Y178968D01*
X108547Y178007D01*
X109181Y177181D01*
X109378Y177029D01*
X109209Y176529D01*
X103633D01*
X95081Y185081D01*
X94585Y185413D01*
X94000Y185529D01*
X89645D01*
X89453Y185993D01*
X88819Y186819D01*
X87993Y187453D01*
X87032Y187851D01*
X86000Y187987D01*
D02*
G37*
G36*
X125921Y179500D02*
X122500D01*
Y176079D01*
X123032Y176149D01*
X123993Y176547D01*
X124819Y177181D01*
X125453Y178007D01*
X125851Y178968D01*
X125921Y179500D01*
D02*
G37*
G36*
X122500Y183921D02*
Y180500D01*
X125921D01*
X125851Y181032D01*
X125453Y181993D01*
X124819Y182819D01*
X123993Y183453D01*
X123032Y183851D01*
X122500Y183921D01*
D02*
G37*
G36*
X121500D02*
X120968Y183851D01*
X120007Y183453D01*
X119181Y182819D01*
X118547Y181993D01*
X118149Y181032D01*
X118079Y180500D01*
X121500D01*
Y183921D01*
D02*
G37*
G36*
X59500Y122500D02*
X56536D01*
X56590Y122086D01*
X56943Y121235D01*
X57504Y120504D01*
X58235Y119943D01*
X59086Y119590D01*
X59500Y119536D01*
Y122500D01*
D02*
G37*
G36*
X90921Y118382D02*
X86500D01*
Y115500D01*
X91941D01*
Y117362D01*
X91863Y117752D01*
X91642Y118083D01*
X91311Y118304D01*
X90921Y118382D01*
D02*
G37*
G36*
X63464Y122500D02*
X60500D01*
Y119536D01*
X60914Y119590D01*
X61765Y119943D01*
X62496Y120504D01*
X63057Y121235D01*
X63410Y122086D01*
X63464Y122500D01*
D02*
G37*
G36*
X59500Y126464D02*
X59086Y126410D01*
X58235Y126057D01*
X57504Y125496D01*
X56943Y124765D01*
X56590Y123914D01*
X56536Y123500D01*
X59500D01*
Y126464D01*
D02*
G37*
G36*
X58000Y178530D02*
X57086Y178410D01*
X56235Y178057D01*
X55504Y177496D01*
X54943Y176765D01*
X54590Y175914D01*
X54470Y175000D01*
X54590Y174086D01*
X54943Y173235D01*
X55504Y172504D01*
X56235Y171943D01*
X56471Y171845D01*
Y140000D01*
X56587Y139415D01*
X56919Y138919D01*
X71919Y123919D01*
X72415Y123587D01*
X73000Y123471D01*
X80435D01*
X80504Y123304D01*
X81043Y122602D01*
X81745Y122063D01*
X82563Y121724D01*
X83441Y121609D01*
X88559D01*
X89437Y121724D01*
X90255Y122063D01*
X90957Y122602D01*
X91496Y123304D01*
X91835Y124122D01*
X91950Y125000D01*
X91835Y125878D01*
X91496Y126696D01*
X90957Y127398D01*
X90255Y127937D01*
X89437Y128276D01*
X88559Y128391D01*
X83441D01*
X82563Y128276D01*
X81745Y127937D01*
X81043Y127398D01*
X80504Y126696D01*
X80435Y126529D01*
X73633D01*
X59529Y140633D01*
Y171845D01*
X59765Y171943D01*
X60496Y172504D01*
X61057Y173235D01*
X61410Y174086D01*
X61530Y175000D01*
X61410Y175914D01*
X61057Y176765D01*
X60496Y177496D01*
X59765Y178057D01*
X58914Y178410D01*
X58000Y178530D01*
D02*
G37*
G36*
X122500Y113921D02*
Y110500D01*
X125921D01*
X125851Y111032D01*
X125453Y111993D01*
X124819Y112819D01*
X123993Y113453D01*
X123032Y113851D01*
X122500Y113921D01*
D02*
G37*
G36*
X125921Y109500D02*
X122500D01*
Y106079D01*
X123032Y106149D01*
X123993Y106547D01*
X124819Y107181D01*
X125453Y108007D01*
X125851Y108968D01*
X125921Y109500D01*
D02*
G37*
G36*
X85500Y114500D02*
X80059D01*
Y112638D01*
X80137Y112248D01*
X80358Y111917D01*
X80689Y111696D01*
X81079Y111618D01*
X85500D01*
Y114500D01*
D02*
G37*
G36*
Y118382D02*
X81079D01*
X80689Y118304D01*
X80358Y118083D01*
X80137Y117752D01*
X80059Y117362D01*
Y115500D01*
X85500D01*
Y118382D01*
D02*
G37*
G36*
X91941Y114500D02*
X86500D01*
Y111618D01*
X90921D01*
X91311Y111696D01*
X91642Y111917D01*
X91863Y112248D01*
X91941Y112638D01*
Y114500D01*
D02*
G37*
G36*
X121500Y139500D02*
X118079D01*
X118149Y138968D01*
X118547Y138007D01*
X119181Y137181D01*
X120007Y136547D01*
X120968Y136149D01*
X121500Y136079D01*
Y139500D01*
D02*
G37*
G36*
X112000Y143987D02*
X110968Y143851D01*
X110007Y143453D01*
X109181Y142819D01*
X108547Y141993D01*
X108149Y141032D01*
X108013Y140000D01*
X108149Y138968D01*
X108341Y138504D01*
X106367Y136529D01*
X98000D01*
X97415Y136413D01*
X96919Y136081D01*
X92919Y132081D01*
X92587Y131585D01*
X92471Y131000D01*
Y89634D01*
X57919Y55081D01*
X57587Y54585D01*
X57471Y54000D01*
Y49155D01*
X57235Y49057D01*
X56504Y48496D01*
X55943Y47765D01*
X55590Y46914D01*
X55470Y46000D01*
X55590Y45086D01*
X55943Y44235D01*
X56504Y43504D01*
X57235Y42943D01*
X58086Y42590D01*
X59000Y42470D01*
X59914Y42590D01*
X60765Y42943D01*
X61496Y43504D01*
X62057Y44235D01*
X62410Y45086D01*
X62530Y46000D01*
X62410Y46914D01*
X62057Y47765D01*
X61496Y48496D01*
X60765Y49057D01*
X60529Y49155D01*
Y53367D01*
X94971Y87808D01*
X95408Y87671D01*
X95471Y87623D01*
Y86633D01*
X71919Y63081D01*
X71587Y62585D01*
X71471Y62000D01*
Y22634D01*
X68366Y19529D01*
X56155D01*
X56057Y19765D01*
X55496Y20496D01*
X54765Y21057D01*
X53914Y21410D01*
X53000Y21530D01*
X52086Y21410D01*
X51235Y21057D01*
X50504Y20496D01*
X49943Y19765D01*
X49590Y18914D01*
X49470Y18000D01*
X49590Y17086D01*
X49943Y16235D01*
X50504Y15504D01*
X51235Y14943D01*
X52086Y14590D01*
X53000Y14470D01*
X53914Y14590D01*
X54765Y14943D01*
X55496Y15504D01*
X56057Y16235D01*
X56155Y16471D01*
X69000D01*
X69585Y16587D01*
X70081Y16919D01*
X73971Y20808D01*
X74408Y20671D01*
X74471Y20623D01*
Y18633D01*
X65367Y9529D01*
X35155D01*
X35057Y9765D01*
X34496Y10496D01*
X33765Y11057D01*
X32914Y11410D01*
X32000Y11530D01*
X31086Y11410D01*
X30235Y11057D01*
X29504Y10496D01*
X28943Y9765D01*
X28590Y8914D01*
X28470Y8000D01*
X28590Y7086D01*
X28943Y6235D01*
X29504Y5504D01*
X30235Y4943D01*
X31086Y4590D01*
X32000Y4470D01*
X32914Y4590D01*
X33765Y4943D01*
X34496Y5504D01*
X35057Y6235D01*
X35155Y6471D01*
X66000D01*
X66585Y6587D01*
X67081Y6919D01*
X77081Y16919D01*
X77413Y17415D01*
X77529Y18000D01*
Y44919D01*
X77978Y45140D01*
X78235Y44943D01*
X79086Y44590D01*
X80000Y44470D01*
X80914Y44590D01*
X81765Y44943D01*
X82496Y45504D01*
X83057Y46235D01*
X83410Y47086D01*
X83530Y48000D01*
X83410Y48914D01*
X83057Y49765D01*
X82496Y50496D01*
X81765Y51057D01*
X81529Y51155D01*
Y60366D01*
X104081Y82919D01*
X104413Y83415D01*
X104529Y84000D01*
Y102366D01*
X105633Y103471D01*
X109209D01*
X109378Y102971D01*
X109181Y102819D01*
X108547Y101993D01*
X108149Y101032D01*
X108013Y100000D01*
X108149Y98968D01*
X108547Y98007D01*
X109181Y97181D01*
X110007Y96547D01*
X110968Y96149D01*
X112000Y96013D01*
X113032Y96149D01*
X113993Y96547D01*
X114819Y97181D01*
X115453Y98007D01*
X115851Y98968D01*
X115987Y100000D01*
X115851Y101032D01*
X115453Y101993D01*
X114819Y102819D01*
X114622Y102971D01*
X114792Y103471D01*
X116000D01*
X116585Y103587D01*
X117081Y103919D01*
X118081Y104919D01*
X118413Y105415D01*
X118529Y106000D01*
Y107209D01*
X119029Y107378D01*
X119181Y107181D01*
X120007Y106547D01*
X120968Y106149D01*
X121500Y106079D01*
Y110000D01*
Y113921D01*
X120968Y113851D01*
X120546Y113676D01*
X120263Y114100D01*
X122203Y116040D01*
X123032Y116149D01*
X123993Y116547D01*
X124819Y117181D01*
X125453Y118007D01*
X125851Y118968D01*
X125987Y120000D01*
X125851Y121032D01*
X125453Y121993D01*
X124819Y122819D01*
X123993Y123453D01*
X123032Y123851D01*
X122000Y123987D01*
X120968Y123851D01*
X120007Y123453D01*
X119181Y122819D01*
X119029Y122622D01*
X118529Y122792D01*
Y124366D01*
X120504Y126341D01*
X120968Y126149D01*
X122000Y126013D01*
X123032Y126149D01*
X123993Y126547D01*
X124819Y127181D01*
X125453Y128007D01*
X125851Y128968D01*
X125987Y130000D01*
X125851Y131032D01*
X125453Y131993D01*
X124819Y132819D01*
X123993Y133453D01*
X123032Y133851D01*
X122000Y133987D01*
X120968Y133851D01*
X120007Y133453D01*
X119181Y132819D01*
X118547Y131993D01*
X118149Y131032D01*
X118013Y130000D01*
X118149Y128968D01*
X118341Y128504D01*
X115919Y126081D01*
X115587Y125585D01*
X115471Y125000D01*
Y122792D01*
X114971Y122622D01*
X114819Y122819D01*
X113993Y123453D01*
X113032Y123851D01*
X112000Y123987D01*
X110968Y123851D01*
X110007Y123453D01*
X109181Y122819D01*
X108547Y121993D01*
X108149Y121032D01*
X108013Y120000D01*
X108149Y118968D01*
X108547Y118007D01*
X109181Y117181D01*
X109378Y117029D01*
X109209Y116529D01*
X103750D01*
X103165Y116413D01*
X102669Y116081D01*
X99169Y112581D01*
X99029Y112373D01*
X98529Y112525D01*
Y114366D01*
X110504Y126341D01*
X110968Y126149D01*
X112000Y126013D01*
X113032Y126149D01*
X113993Y126547D01*
X114819Y127181D01*
X115453Y128007D01*
X115851Y128968D01*
X115987Y130000D01*
X115851Y131032D01*
X115453Y131993D01*
X114819Y132819D01*
X113993Y133453D01*
X113032Y133851D01*
X112000Y133987D01*
X110968Y133851D01*
X110007Y133453D01*
X109181Y132819D01*
X108547Y131993D01*
X108149Y131032D01*
X108013Y130000D01*
X108149Y128968D01*
X108341Y128504D01*
X96029Y116192D01*
X95592Y116329D01*
X95529Y116377D01*
Y130367D01*
X98633Y133471D01*
X107000D01*
X107585Y133587D01*
X108081Y133919D01*
X110504Y136341D01*
X110968Y136149D01*
X112000Y136013D01*
X113032Y136149D01*
X113993Y136547D01*
X114819Y137181D01*
X115453Y138007D01*
X115851Y138968D01*
X115987Y140000D01*
X115851Y141032D01*
X115453Y141993D01*
X114819Y142819D01*
X113993Y143453D01*
X113032Y143851D01*
X112000Y143987D01*
D02*
G37*
G36*
X125921Y139500D02*
X122500D01*
Y136079D01*
X123032Y136149D01*
X123993Y136547D01*
X124819Y137181D01*
X125453Y138007D01*
X125851Y138968D01*
X125921Y139500D01*
D02*
G37*
G36*
X122500Y143921D02*
Y140500D01*
X125921D01*
X125851Y141032D01*
X125453Y141993D01*
X124819Y142819D01*
X123993Y143453D01*
X123032Y143851D01*
X122500Y143921D01*
D02*
G37*
G36*
X121500D02*
X120968Y143851D01*
X120007Y143453D01*
X119181Y142819D01*
X118547Y141993D01*
X118149Y141032D01*
X118079Y140500D01*
X121500D01*
Y143921D01*
D02*
G37*
G36*
X23500Y128500D02*
X20536D01*
X20590Y128086D01*
X20943Y127235D01*
X21504Y126504D01*
X22235Y125943D01*
X23086Y125590D01*
X23500Y125536D01*
Y128500D01*
D02*
G37*
G36*
X60500Y126464D02*
Y123500D01*
X63464D01*
X63410Y123914D01*
X63057Y124765D01*
X62496Y125496D01*
X61765Y126057D01*
X60914Y126410D01*
X60500Y126464D01*
D02*
G37*
G36*
X27464Y128500D02*
X24500D01*
Y125536D01*
X24914Y125590D01*
X25765Y125943D01*
X26496Y126504D01*
X27057Y127235D01*
X27410Y128086D01*
X27464Y128500D01*
D02*
G37*
G36*
X24500Y132464D02*
Y129500D01*
X27464D01*
X27410Y129914D01*
X27057Y130765D01*
X26496Y131496D01*
X25765Y132057D01*
X24914Y132410D01*
X24500Y132464D01*
D02*
G37*
G36*
X23500D02*
X23086Y132410D01*
X22235Y132057D01*
X21504Y131496D01*
X20943Y130765D01*
X20590Y129914D01*
X20536Y129500D01*
X23500D01*
Y132464D01*
D02*
G37*
%LPD*%
G36*
X109378Y112971D02*
X109181Y112819D01*
X108547Y111993D01*
X108149Y111032D01*
X108013Y110000D01*
X108149Y108968D01*
X108547Y108007D01*
X109181Y107181D01*
X109378Y107029D01*
X109209Y106529D01*
X105000D01*
X104415Y106413D01*
X103919Y106081D01*
X102029Y104192D01*
X101592Y104329D01*
X101529Y104377D01*
Y105465D01*
X101663Y105665D01*
X101779Y106250D01*
Y110866D01*
X104384Y113471D01*
X109209D01*
X109378Y112971D01*
D02*
G37*
D16*
X79000Y145000D02*
X86000D01*
X76000Y148000D02*
X79000Y145000D01*
X76000Y148000D02*
Y189000D01*
X81000Y194000D01*
X86000D01*
X80000Y48000D02*
Y61000D01*
X103000Y84000D01*
X76000Y61000D02*
X100000Y85000D01*
X73000Y62000D02*
X97000Y86000D01*
X59000Y54000D02*
X94000Y89000D01*
X76000Y18000D02*
Y61000D01*
X59000Y46000D02*
Y54000D01*
X73000Y22000D02*
Y62000D01*
X66000Y8000D02*
X76000Y18000D01*
X69000D02*
X73000Y22000D01*
X103000Y84000D02*
Y103000D01*
X100000Y85000D02*
Y106000D01*
X97000Y86000D02*
Y115000D01*
X103000Y103000D02*
X105000Y105000D01*
X100000Y106000D02*
X100250Y106250D01*
X94000Y89000D02*
Y131000D01*
X97000Y115000D02*
X112000Y130000D01*
X94000Y131000D02*
X98000Y135000D01*
X105000Y105000D02*
X116000D01*
X117000Y106000D01*
Y113000D01*
X122000Y118000D01*
Y120000D01*
X100250Y111500D02*
X103750Y115000D01*
X115000D01*
X100250Y106250D02*
Y111500D01*
X32000Y8000D02*
X66000D01*
X53000Y18000D02*
X69000D01*
X115000Y115000D02*
X117000Y117000D01*
Y125000D01*
X122000Y130000D01*
X73000Y140000D02*
X98000D01*
Y135000D02*
X107000D01*
X112000Y140000D01*
X98000D02*
X108000Y150000D01*
X112000D01*
X86000Y174000D02*
X95000Y165000D01*
X116000D01*
X121000Y160000D01*
X122000D01*
X86000Y184000D02*
X94000D01*
X103000Y175000D01*
X117000D01*
X122000Y170000D01*
X69000Y135000D02*
X86000D01*
X66000Y138000D02*
X69000Y135000D01*
X66000Y138000D02*
Y180000D01*
X54000Y99000D02*
X56000Y101000D01*
X32000Y99000D02*
X54000D01*
X58000Y140000D02*
Y175000D01*
Y140000D02*
X73000Y125000D01*
X86000D01*
D18*
X11000Y16000D02*
D03*
X97000Y50000D02*
D03*
D19*
X86000Y164000D02*
D03*
Y174000D02*
D03*
Y184000D02*
D03*
X122000Y10000D02*
D03*
X112000D02*
D03*
X122000Y20000D02*
D03*
X112000D02*
D03*
X122000Y30000D02*
D03*
X112000D02*
D03*
X122000Y40000D02*
D03*
X112000D02*
D03*
X122000Y50000D02*
D03*
X112000D02*
D03*
X122000Y60000D02*
D03*
X112000D02*
D03*
X122000Y70000D02*
D03*
X112000D02*
D03*
X122000Y80000D02*
D03*
X112000D02*
D03*
X122000Y90000D02*
D03*
X112000D02*
D03*
X122000Y100000D02*
D03*
X112000D02*
D03*
X122000Y110000D02*
D03*
X112000D02*
D03*
X122000Y120000D02*
D03*
X112000D02*
D03*
X122000Y130000D02*
D03*
X112000D02*
D03*
X122000Y140000D02*
D03*
X112000D02*
D03*
X122000Y150000D02*
D03*
X112000D02*
D03*
X122000Y160000D02*
D03*
X112000D02*
D03*
X122000Y170000D02*
D03*
X112000D02*
D03*
X122000Y180000D02*
D03*
X112000D02*
D03*
X122000Y190000D02*
D03*
X112000D02*
D03*
X122000Y200000D02*
D03*
D20*
X86000Y194000D02*
D03*
X112000Y200000D02*
D03*
D21*
X86000Y115000D02*
D03*
D22*
Y125000D02*
D03*
Y135000D02*
D03*
Y145000D02*
D03*
D23*
X55000Y65000D02*
D03*
X18000Y45000D02*
D03*
X60000Y123000D02*
D03*
X24000Y129000D02*
D03*
X13000Y154000D02*
D03*
X80000Y48000D02*
D03*
X32000Y8000D02*
D03*
X53000Y18000D02*
D03*
X59000Y46000D02*
D03*
X73000Y140000D02*
D03*
X56000Y101000D02*
D03*
X32000Y99000D02*
D03*
X66000Y180000D02*
D03*
X58000Y175000D02*
D03*
M02*
